<svg width="14" height="14" viewBox="0 0 14 14" fill="none" xmlns="http://www.w3.org/2000/svg">
<path d="M7 0C5.61553 0 4.26215 0.410543 3.11101 1.17971C1.95987 1.94888 1.06266 3.04213 0.532846 4.32122C0.00303299 5.6003 -0.13559 7.00776 0.134506 8.36563C0.404603 9.7235 1.07129 10.9708 2.05026 11.9497C3.02922 12.9287 4.2765 13.5954 5.63437 13.8655C6.99224 14.1356 8.3997 13.997 9.67879 13.4672C10.9579 12.9373 12.0511 12.0401 12.8203 10.889C13.5895 9.73785 14 8.38447 14 7C14 6.08075 13.8189 5.17049 13.4672 4.32122C13.1154 3.47194 12.5998 2.70026 11.9497 2.05025C11.2997 1.40024 10.5281 0.884626 9.67879 0.532843C8.82951 0.18106 7.91925 0 7 0ZM7 12.6C5.89243 12.6 4.80972 12.2716 3.88881 11.6562C2.96789 11.0409 2.25013 10.1663 1.82628 9.14303C1.40243 8.11976 1.29153 6.99379 1.50761 5.90749C1.72368 4.8212 2.25703 3.82338 3.0402 3.0402C3.82338 2.25703 4.8212 1.72368 5.9075 1.5076C6.99379 1.29153 8.11976 1.40242 9.14303 1.82627C10.1663 2.25013 11.0409 2.96789 11.6562 3.88881C12.2716 4.80972 12.6 5.89242 12.6 7C12.6 8.48521 12.01 9.90959 10.9598 10.9598C9.9096 12.01 8.48521 12.6 7 12.6Z" fill="#363636"/>
<path d="M7.00005 4.9C7.38665 4.9 7.70005 4.5866 7.70005 4.2C7.70005 3.8134 7.38665 3.5 7.00005 3.5C6.61345 3.5 6.30005 3.8134 6.30005 4.2C6.30005 4.5866 6.61345 4.9 7.00005 4.9Z" fill="#363636"/>
<path d="M7.00005 5.59999C6.8144 5.59999 6.63635 5.67374 6.50507 5.80502C6.3738 5.93629 6.30005 6.11434 6.30005 6.29999V9.79999C6.30005 9.98564 6.3738 10.1637 6.50507 10.295C6.63635 10.4262 6.8144 10.5 7.00005 10.5C7.1857 10.5 7.36375 10.4262 7.49502 10.295C7.6263 10.1637 7.70005 9.98564 7.70005 9.79999V6.29999C7.70005 6.11434 7.6263 5.93629 7.49502 5.80502C7.36375 5.67374 7.1857 5.59999 7.00005 5.59999Z" fill="#363636"/>
</svg>
