<svg width="14" height="14" viewBox="0 0 14 14" fill="none" xmlns="http://www.w3.org/2000/svg">
<path d="M1.3125 7C1.3125 5.49158 1.91172 4.04494 2.97833 2.97833C4.04494 1.91172 5.49158 1.3125 7 1.3125C8.50842 1.3125 9.95506 1.91172 11.0217 2.97833C12.0883 4.04494 12.6875 5.49158 12.6875 7C12.6875 8.50842 12.0883 9.95506 11.0217 11.0217C9.95506 12.0883 8.50842 12.6875 7 12.6875C5.49158 12.6875 4.04494 12.0883 2.97833 11.0217C1.91172 9.95506 1.3125 8.50842 1.3125 7ZM14 7C14 5.14348 13.2625 3.36301 11.9497 2.05025C10.637 0.737498 8.85652 0 7 0C5.14348 0 3.36301 0.737498 2.05025 2.05025C0.737498 3.36301 0 5.14348 0 7C0 8.85652 0.737498 10.637 2.05025 11.9497C3.36301 13.2625 5.14348 14 7 14C8.85652 14 10.637 13.2625 11.9497 11.9497C13.2625 10.637 14 8.85652 14 7ZM5.94453 10.3059C6.05937 10.4289 6.2207 10.5 6.39023 10.5C6.72656 10.5 7 10.2266 7 9.89023V8.3125H9.625C10.109 8.3125 10.5 7.92148 10.5 7.4375V6.5625C10.5 6.07852 10.109 5.6875 9.625 5.6875H7V4.10977C7 3.77344 6.72656 3.5 6.39023 3.5C6.2207 3.5 6.05937 3.57109 5.94453 3.69414L3.21289 6.62266C3.11719 6.72656 3.0625 6.86055 3.0625 7C3.0625 7.13945 3.11719 7.27617 3.21289 7.37734L5.94453 10.3059Z" fill="#606060"/>
</svg>
