<svg width="14" height="17" viewBox="0 0 14 17" fill="none" xmlns="http://www.w3.org/2000/svg">
<path d="M12 10.9102H6C5.725 10.9102 5.5 10.6764 5.5 10.3906V2.07812C5.5 1.79238 5.725 1.55859 6 1.55859H10.3781L12.5 3.76335V10.3906C12.5 10.6764 12.275 10.9102 12 10.9102ZM6 12.4688H12C13.1031 12.4688 14 11.5368 14 10.3906V3.76335C14 3.35098 13.8406 2.95483 13.5594 2.6626L11.4406 0.457837C11.1594 0.165601 10.7781 0 10.3813 0H6C4.89688 0 4 0.931909 4 2.07812V10.3906C4 11.5368 4.89688 12.4688 6 12.4688ZM2 4.15625C0.896875 4.15625 0 5.08816 0 6.23438V14.5469C0 15.6931 0.896875 16.625 2 16.625H8C9.10312 16.625 10 15.6931 10 14.5469V13.5078H8.5V14.5469C8.5 14.8326 8.275 15.0664 8 15.0664H2C1.725 15.0664 1.5 14.8326 1.5 14.5469V6.23438C1.5 5.94863 1.725 5.71484 2 5.71484H3V4.15625H2Z" fill="#DBDBDB"/>
</svg>
