<svg width="28" height="21" viewBox="0 0 28 21" fill="none" xmlns="http://www.w3.org/2000/svg">
<path d="M3.01961 0C1.35411 0 0 1.34531 0 3V4.5H27.1765V3C27.1765 1.34531 25.8224 0 24.1569 0H3.01961ZM27.1765 9H0V18C0 19.6547 1.35411 21 3.01961 21H24.1569C25.8224 21 27.1765 19.6547 27.1765 18V9ZM5.28431 15H8.30392C8.71912 15 9.05882 15.3375 9.05882 15.75C9.05882 16.1625 8.71912 16.5 8.30392 16.5H5.28431C4.86912 16.5 4.52941 16.1625 4.52941 15.75C4.52941 15.3375 4.86912 15 5.28431 15ZM10.5686 15.75C10.5686 15.3375 10.9083 15 11.3235 15H17.3627C17.7779 15 18.1176 15.3375 18.1176 15.75C18.1176 16.1625 17.7779 16.5 17.3627 16.5H11.3235C10.9083 16.5 10.5686 16.1625 10.5686 15.75Z" fill="#0A24AD"/>
</svg>
