<svg width="28" height="19" viewBox="0 0 28 19" fill="none" xmlns="http://www.w3.org/2000/svg">
<path d="M28 3.06667C28 1.37521 26.6049 0 24.8889 0H9.97986C9.15347 0 8.36111 0.321042 7.77778 0.896042L0.456944 8.11708C0.165278 8.40458 0 8.79271 0 9.2C0 9.60729 0.165278 9.99542 0.456944 10.2829L7.77778 17.504C8.36111 18.079 9.15347 18.4 9.97986 18.4H24.8889C26.6049 18.4 28 17.0248 28 15.3333V3.06667ZM13.1736 5.31875C13.6306 4.86833 14.3694 4.86833 14.8215 5.31875L17.1063 7.57083L19.391 5.31875C19.8479 4.86833 20.5868 4.86833 21.0389 5.31875C21.491 5.76917 21.4958 6.4975 21.0389 6.94312L18.7542 9.19521L21.0389 11.4473C21.4958 11.8977 21.4958 12.626 21.0389 13.0717C20.5819 13.5173 19.8431 13.5221 19.391 13.0717L17.1063 10.8196L14.8215 13.0717C14.3646 13.5221 13.6257 13.5221 13.1736 13.0717C12.7215 12.6212 12.7167 11.8929 13.1736 11.4473L15.4583 9.19521L13.1736 6.94312C12.7167 6.49271 12.7167 5.76437 13.1736 5.31875Z" fill="#C6C6C6"/>
</svg>
