<svg width="14" height="14" viewBox="0 0 14 14" fill="none" xmlns="http://www.w3.org/2000/svg">
<path d="M12.6875 7C12.6875 5.49158 12.0883 4.04494 11.0217 2.97833C9.95506 1.91172 8.50842 1.3125 7 1.3125C5.49158 1.3125 4.04494 1.91172 2.97833 2.97833C1.91172 4.04494 1.3125 5.49158 1.3125 7C1.3125 8.50842 1.91172 9.95506 2.97833 11.0217C4.04494 12.0883 5.49158 12.6875 7 12.6875C8.50842 12.6875 9.95506 12.0883 11.0217 11.0217C12.0883 9.95506 12.6875 8.50842 12.6875 7ZM0 7C0 5.14348 0.737498 3.36301 2.05025 2.05025C3.36301 0.737498 5.14348 0 7 0C8.85652 0 10.637 0.737498 11.9497 2.05025C13.2625 3.36301 14 5.14348 14 7C14 8.85652 13.2625 10.637 11.9497 11.9497C10.637 13.2625 8.85652 14 7 14C5.14348 14 3.36301 13.2625 2.05025 11.9497C0.737498 10.637 0 8.85652 0 7ZM4.85625 8.69805C5.27188 9.14648 5.98281 9.625 7 9.625C8.01719 9.625 8.72812 9.14648 9.14375 8.69805C9.38984 8.43281 9.80547 8.41367 10.0707 8.65977C10.3359 8.90586 10.3551 9.32148 10.109 9.58672C9.50742 10.2375 8.46836 10.9375 7.00273 10.9375C5.53711 10.9375 4.49531 10.2402 3.89648 9.58672C3.65039 9.32148 3.6668 8.90586 3.93477 8.65977C4.20273 8.41367 4.61562 8.43008 4.86172 8.69805H4.85625ZM3.94844 5.6875C3.94844 5.45544 4.04062 5.23288 4.20472 5.06878C4.36881 4.90469 4.59137 4.8125 4.82344 4.8125C5.0555 4.8125 5.27806 4.90469 5.44216 5.06878C5.60625 5.23288 5.69844 5.45544 5.69844 5.6875C5.69844 5.91956 5.60625 6.14212 5.44216 6.30622C5.27806 6.47031 5.0555 6.5625 4.82344 6.5625C4.59137 6.5625 4.36881 6.47031 4.20472 6.30622C4.04062 6.14212 3.94844 5.91956 3.94844 5.6875ZM9.19844 4.8125C9.4305 4.8125 9.65306 4.90469 9.81716 5.06878C9.98125 5.23288 10.0734 5.45544 10.0734 5.6875C10.0734 5.91956 9.98125 6.14212 9.81716 6.30622C9.65306 6.47031 9.4305 6.5625 9.19844 6.5625C8.96637 6.5625 8.74381 6.47031 8.57972 6.30622C8.41562 6.14212 8.32344 5.91956 8.32344 5.6875C8.32344 5.45544 8.41562 5.23288 8.57972 5.06878C8.74381 4.90469 8.96637 4.8125 9.19844 4.8125Z" fill="#606060"/>
</svg>
