<svg width="14" height="14" viewBox="0 0 14 14" fill="none" xmlns="http://www.w3.org/2000/svg">
<path d="M7 1.4C5.51479 1.4 4.09041 1.99 3.0402 3.0402C1.99 4.09041 1.4 5.51479 1.4 7C1.4 8.48521 1.99 9.90959 3.0402 10.9598C4.09041 12.01 5.51479 12.6 7 12.6C8.48521 12.6 9.90959 12.01 10.9598 10.9598C12.01 9.90959 12.6 8.48521 12.6 7C12.6 5.51479 12.01 4.09041 10.9598 3.0402C9.90959 1.99 8.48521 1.4 7 1.4ZM0 7C0 3.1339 3.1339 0 7 0C10.8661 0 14 3.1339 14 7C14 10.8661 10.8661 14 7 14C3.1339 14 0 10.8661 0 7Z" fill="#363636"/>
<path d="M7.0002 8.39999C6.81454 8.39999 6.6365 8.32624 6.50522 8.19496C6.37395 8.06369 6.3002 7.88564 6.3002 7.69999V6.99999C6.3002 6.81434 6.37395 6.63629 6.50522 6.50501C6.6365 6.37374 6.81454 6.29999 7.0002 6.29999C7.18585 6.29999 7.36389 6.37374 7.49517 6.50501C7.62645 6.63629 7.7002 6.81434 7.7002 6.99999V7.69999C7.7002 7.88564 7.62645 8.06369 7.49517 8.19496C7.36389 8.32624 7.18585 8.39999 7.0002 8.39999ZM5.9502 10.15C5.9502 9.87151 6.06082 9.60444 6.25773 9.40753C6.45465 9.21061 6.72172 9.09999 7.0002 9.09999C7.27867 9.09999 7.54574 9.21061 7.74266 9.40753C7.93957 9.60444 8.0502 9.87151 8.0502 10.15C8.0502 10.4285 7.93957 10.6955 7.74266 10.8924C7.54574 11.0894 7.27867 11.2 7.0002 11.2C6.72172 11.2 6.45465 11.0894 6.25773 10.8924C6.06082 10.6955 5.9502 10.4285 5.9502 10.15Z" fill="#363636"/>
<path d="M7.27301 4.0677C6.60311 4.0362 6.04101 4.4107 5.94021 5.0148C5.90495 5.19335 5.80154 5.35115 5.6519 5.45474C5.50225 5.55833 5.31815 5.59957 5.13862 5.56971C4.95908 5.53985 4.79824 5.44124 4.69019 5.29478C4.58214 5.14833 4.53537 4.96555 4.55981 4.7852C4.80901 3.29 6.17191 2.6138 7.33951 2.6698C7.93731 2.6978 8.55261 2.9127 9.02581 3.3551C9.51091 3.808 9.80001 4.4576 9.80001 5.25C9.80001 6.1537 9.44441 6.8243 8.83191 7.2324C8.26981 7.6069 7.58031 7.7 7.00001 7.7C6.81436 7.7 6.63631 7.62625 6.50503 7.49498C6.37376 7.3637 6.30001 7.18565 6.30001 7C6.30001 6.81435 6.37376 6.6363 6.50503 6.50503C6.63631 6.37375 6.81436 6.3 7.00001 6.3C7.46901 6.3 7.83021 6.2181 8.05561 6.0676C8.23061 5.9507 8.40001 5.7456 8.40001 5.25C8.40001 4.8174 8.25161 4.5479 8.06961 4.3778C7.87571 4.1965 7.59361 4.0838 7.27301 4.0677Z" fill="#363636"/>
</svg>
