<svg width="16" height="14" viewBox="0 0 16 14" fill="none" xmlns="http://www.w3.org/2000/svg">
<path d="M15.7111 0.989849C15.8917 1.1129 16 1.31524 16 1.53126V10.7188C16 10.9922 15.8278 11.2356 15.5694 11.3313L10.9028 13.0813C10.7583 13.1359 10.6 13.1387 10.4556 13.0895L5.34722 11.416L0.902778 13.084C0.697222 13.1606 0.466667 13.1332 0.286111 13.0102C0.105556 12.8871 0 12.6848 0 12.4688V3.28126C0 3.00782 0.169444 2.76446 0.430556 2.66876L5.09722 0.918756C5.24167 0.864068 5.4 0.861334 5.54444 0.910553L10.6528 2.58399L15.0972 0.916021C15.3028 0.839459 15.5333 0.866803 15.7139 0.989849H15.7111ZM1.33333 3.73243V11.5172L4.66667 10.2676V2.48282L1.33333 3.73243ZM10 11.5582V3.7543L6 2.4418V10.2457L10 11.5582ZM11.3333 11.5172L14.6667 10.2676V2.48282L11.3333 3.73243V11.5172Z" fill="#606060"/>
</svg>
