<svg width="12" height="13" viewBox="0 0 12 13" fill="none" xmlns="http://www.w3.org/2000/svg">
<path d="M5.5 0C5.06536 0 4.71421 0.363086 4.71421 0.8125V1.3C2.92162 1.67578 1.57104 3.31602 1.57104 5.28125V5.92617C1.57104 7.07891 1.19042 8.19863 0.495483 9.09746L0.129598 9.57227C-0.0128271 9.75508 -0.0398387 10.0064 0.0583853 10.2172C0.156609 10.4279 0.36288 10.5625 0.588795 10.5625H10.4112C10.6371 10.5625 10.8434 10.4279 10.9416 10.2172C11.0398 10.0064 11.0128 9.75508 10.8704 9.57227L10.5045 9.1C9.80958 8.19863 9.42896 7.07891 9.42896 5.92617V5.28125C9.42896 3.31602 8.07838 1.67578 6.28579 1.3V0.8125C6.28579 0.363086 5.93464 0 5.5 0ZM5.5 2.4375C7.02002 2.4375 8.25027 3.70957 8.25027 5.28125V5.92617C8.25027 7.14238 8.5916 8.32812 9.22515 9.34375H1.77485C2.4084 8.32812 2.74973 7.14238 2.74973 5.92617V5.28125C2.74973 3.70957 3.97998 2.4375 5.5 2.4375ZM7.07159 11.375H5.5H3.92841C3.92841 11.8066 4.09294 12.2205 4.38761 12.5252C4.68228 12.8299 5.08255 13 5.5 13C5.91745 13 6.31771 12.8299 6.61239 12.5252C6.90706 12.2205 7.07159 11.8066 7.07159 11.375Z" fill="#606060"/>
<circle cx="9" cy="3" r="3" fill="#FF4C4C"/>
</svg>
