<svg width="10" height="10" viewBox="0 0 10 10" fill="none" xmlns="http://www.w3.org/2000/svg">
<path d="M0.308362 5.08207C-0.133338 5.33402 -0.0922949 6.00589 0.378722 6.2012L3.12078 7.34377V9.36133C3.12078 9.71484 3.40613 10 3.75988 10C3.94946 10 4.12926 9.91602 4.25044 9.76953L5.46218 8.31837L7.88371 9.32618C8.2531 9.48047 8.68112 9.23829 8.74171 8.84376L9.99254 0.718819C10.0297 0.482493 9.92609 0.244213 9.72869 0.109449C9.53129 -0.0253158 9.27331 -0.0370344 9.06419 0.0821053L0.308362 5.08207ZM1.32662 5.58011L8.00098 1.76959L3.70906 6.56253L3.73252 6.58206L1.32662 5.58011ZM7.8759 8.30861L4.61982 6.95119L8.80425 2.2774L7.8759 8.30861Z" fill="white"/>
</svg>
