<svg width="14" height="14" viewBox="0 0 14 14" fill="none" xmlns="http://www.w3.org/2000/svg">
<path d="M7.41474 7.70188L5.80436 9.30525C5.73874 9.37034 5.68665 9.44778 5.6511 9.5331C5.61556 9.61843 5.59725 9.70994 5.59725 9.80237C5.59725 9.8948 5.61556 9.98632 5.6511 10.0716C5.68665 10.157 5.73874 10.2344 5.80436 10.2995C5.86945 10.3651 5.94689 10.4172 6.03221 10.4527C6.11753 10.4883 6.20905 10.5066 6.30148 10.5066C6.39391 10.5066 6.48542 10.4883 6.57075 10.4527C6.65607 10.4172 6.73351 10.3651 6.7986 10.2995L9.59925 7.49883C9.663 7.43224 9.71296 7.35372 9.74629 7.26778C9.81632 7.09731 9.81632 6.90611 9.74629 6.73565C9.71296 6.6497 9.663 6.57118 9.59925 6.5046L6.7986 3.70394C6.73331 3.63866 6.65581 3.58687 6.57052 3.55154C6.48522 3.51621 6.3938 3.49803 6.30148 3.49803C6.20916 3.49803 6.11774 3.51621 6.03244 3.55154C5.94715 3.58687 5.86964 3.63866 5.80436 3.70394C5.73908 3.76922 5.68729 3.84672 5.65196 3.93202C5.61663 4.01731 5.59845 4.10873 5.59845 4.20106C5.59845 4.29338 5.61663 4.3848 5.65196 4.47009C5.68729 4.55539 5.73908 4.63289 5.80436 4.69817L7.41474 6.30155H0.700164C0.514469 6.30155 0.33638 6.37532 0.205073 6.50662C0.0737671 6.63793 0 6.81602 0 7.00171C0 7.18741 0.0737671 7.3655 0.205073 7.4968C0.33638 7.62811 0.514469 7.70188 0.700164 7.70188H7.41474ZM7.00164 6.9802e-05C5.6931 -0.00577222 4.40911 0.355202 3.2953 1.04205C2.1815 1.72889 1.28246 2.71412 0.700164 3.88598C0.616602 4.05311 0.602852 4.24658 0.66194 4.42385C0.721027 4.60111 0.848113 4.74764 1.01524 4.8312C1.18236 4.91477 1.37584 4.92852 1.5531 4.86943C1.73037 4.81034 1.8769 4.68326 1.96046 4.51613C2.4031 3.62224 3.07641 2.86277 3.9108 2.3162C4.7452 1.76963 5.71042 1.45579 6.7067 1.40711C7.70299 1.35844 8.6942 1.57668 9.57791 2.03931C10.4616 2.50193 11.2058 3.19214 11.7334 4.03861C12.2611 4.88509 12.5532 5.85712 12.5794 6.85425C12.6057 7.85138 12.3652 8.83743 11.8828 9.71052C11.4005 10.5836 10.6937 11.312 9.83558 11.8205C8.97746 12.329 7.99911 12.5992 7.00164 12.603C5.95761 12.6075 4.93347 12.3176 4.04673 11.7665C3.16 11.2154 2.44662 10.4254 1.98847 9.4873C1.9049 9.32017 1.75837 9.19309 1.58111 9.134C1.40385 9.07491 1.21037 9.08866 1.04324 9.17222C0.876119 9.25579 0.749034 9.40232 0.689946 9.57958C0.630858 9.75684 0.644608 9.95032 0.728171 10.1174C1.28328 11.2346 2.12676 12.1831 3.17137 12.8649C4.21598 13.5468 5.42379 13.9371 6.66985 13.9956C7.91591 14.0542 9.15499 13.7787 10.2589 13.1978C11.3628 12.6169 12.2915 11.7516 12.9489 10.6915C13.6063 9.63129 13.9685 8.41474 13.998 7.16765C14.0276 5.92057 13.7234 4.68822 13.117 3.5981C12.5106 2.50797 11.624 1.59964 10.5489 0.967071C9.47371 0.3345 8.24908 0.000655456 7.00164 6.9802e-05Z" fill="#363636"/>
</svg>
