<svg width="32" height="21" viewBox="0 0 32 21" fill="none" xmlns="http://www.w3.org/2000/svg">
<path d="M3.5 0C1.56953 0 0 1.56953 0 3.5V7C0 7.48125 0.404687 7.85859 0.858594 8.01719C1.88672 8.37266 2.625 9.35156 2.625 10.5C2.625 11.6484 1.88672 12.6273 0.858594 12.9828C0.404687 13.1414 0 13.5187 0 14V17.5C0 19.4305 1.56953 21 3.5 21H28C29.9305 21 31.5 19.4305 31.5 17.5V14C31.5 13.5187 31.0953 13.1414 30.6414 12.9828C29.6133 12.6273 28.875 11.6484 28.875 10.5C28.875 9.35156 29.6133 8.37266 30.6414 8.01719C31.0953 7.85859 31.5 7.48125 31.5 7V3.5C31.5 1.56953 29.9305 0 28 0H3.5ZM7 6.125V14.875C7 15.3563 7.39375 15.75 7.875 15.75H23.625C24.1063 15.75 24.5 15.3563 24.5 14.875V6.125C24.5 5.64375 24.1063 5.25 23.625 5.25H7.875C7.39375 5.25 7 5.64375 7 6.125ZM5.25 5.25C5.25 4.28203 6.03203 3.5 7 3.5H24.5C25.468 3.5 26.25 4.28203 26.25 5.25V15.75C26.25 16.718 25.468 17.5 24.5 17.5H7C6.03203 17.5 5.25 16.718 5.25 15.75V5.25Z" fill="#C0C0C0"/>
</svg>
