<svg width="28" height="28" viewBox="0 0 28 28" fill="none" xmlns="http://www.w3.org/2000/svg">
<path d="M15.75 5.97627V19.2496C15.75 20.2176 14.968 20.9997 14 20.9997C13.032 20.9997 12.25 20.2176 12.25 19.2496V5.97627L8.23594 9.99053C7.55234 10.6742 6.44219 10.6742 5.75859 9.99053C5.075 9.3069 5.075 8.19669 5.75859 7.51306L12.7586 0.51272C13.4422 -0.170907 14.5523 -0.170907 15.2359 0.51272L22.2359 7.51306C22.9195 8.19669 22.9195 9.3069 22.2359 9.99053C21.5523 10.6742 20.4422 10.6742 19.7586 9.99053L15.75 5.97627ZM3.5 19.2496H10.5C10.5 21.1801 12.0695 22.7497 14 22.7497C15.9305 22.7497 17.5 21.1801 17.5 19.2496H24.5C26.4305 19.2496 28 20.8192 28 22.7497V24.4998C28 26.4304 26.4305 28 24.5 28H3.5C1.56953 28 0 26.4304 0 24.4998V22.7497C0 20.8192 1.56953 19.2496 3.5 19.2496ZM23.625 24.9374C23.9731 24.9374 24.3069 24.7991 24.5531 24.5529C24.7992 24.3068 24.9375 23.9729 24.9375 23.6248C24.9375 23.2767 24.7992 22.9428 24.5531 22.6967C24.3069 22.4505 23.9731 22.3122 23.625 22.3122C23.2769 22.3122 22.9431 22.4505 22.6969 22.6967C22.4508 22.9428 22.3125 23.2767 22.3125 23.6248C22.3125 23.9729 22.4508 24.3068 22.6969 24.5529C22.9431 24.7991 23.2769 24.9374 23.625 24.9374Z" fill="#C0C0C0"/>
</svg>
