<svg width="22" height="24" viewBox="0 0 22 24" fill="none" xmlns="http://www.w3.org/2000/svg">
<path d="M10.5306 12C12.1266 12 13.6571 11.3679 14.7856 10.2426C15.9141 9.11742 16.5481 7.5913 16.5481 6C16.5481 4.4087 15.9141 2.88258 14.7856 1.75736C13.6571 0.632141 12.1266 0 10.5306 0C8.93467 0 7.4041 0.632141 6.2756 1.75736C5.1471 2.88258 4.51312 4.4087 4.51312 6C4.51312 7.5913 5.1471 9.11742 6.2756 10.2426C7.4041 11.3679 8.93467 12 10.5306 12ZM8.38218 14.25C3.75153 14.25 0 17.9906 0 22.6078C0 23.3766 0.625255 24 1.39625 24H19.665C20.436 24 21.0612 23.3766 21.0612 22.6078C21.0612 17.9906 17.3097 14.25 12.679 14.25H8.38218Z" fill="#C0C0C0"/>
</svg>
