<svg width="10" height="10" viewBox="0 0 10 10" fill="none" xmlns="http://www.w3.org/2000/svg">
<path d="M8.61328 1.15039L8.84961 1.38672C9.0332 1.57031 9.0332 1.86719 8.84961 2.04883L8.28125 2.61914L7.38086 1.71875L7.94922 1.15039C8.13281 0.966797 8.42969 0.966797 8.61133 1.15039H8.61328ZM4.09766 5.00391L6.71875 2.38086L7.61914 3.28125L4.99609 5.90234C4.93945 5.95898 4.86914 6 4.79297 6.02148L3.65039 6.34766L3.97656 5.20508C3.99805 5.12891 4.03906 5.05859 4.0957 5.00195L4.09766 5.00391ZM7.28711 0.488281L3.43359 4.33984C3.26367 4.50977 3.14062 4.71875 3.07617 4.94727L2.51758 6.90039C2.4707 7.06445 2.51563 7.24023 2.63672 7.36133C2.75781 7.48242 2.93359 7.52734 3.09766 7.48047L5.05078 6.92188C5.28125 6.85547 5.49023 6.73242 5.6582 6.56445L9.51172 2.71289C10.0605 2.16406 10.0605 1.27344 9.51172 0.724609L9.27539 0.488281C8.72656 -0.0605469 7.83594 -0.0605469 7.28711 0.488281ZM1.71875 1.25C0.769531 1.25 0 2.01953 0 2.96875V8.28125C0 9.23047 0.769531 10 1.71875 10H7.03125C7.98047 10 8.75 9.23047 8.75 8.28125V6.09375C8.75 5.83398 8.54102 5.625 8.28125 5.625C8.02148 5.625 7.8125 5.83398 7.8125 6.09375V8.28125C7.8125 8.71289 7.46289 9.0625 7.03125 9.0625H1.71875C1.28711 9.0625 0.9375 8.71289 0.9375 8.28125V2.96875C0.9375 2.53711 1.28711 2.1875 1.71875 2.1875H3.90625C4.16602 2.1875 4.375 1.97852 4.375 1.71875C4.375 1.45898 4.16602 1.25 3.90625 1.25H1.71875Z" fill="#000571"/>
</svg>
