<svg width="28" height="28" viewBox="0 0 28 28" fill="none" xmlns="http://www.w3.org/2000/svg">
<path fill-rule="evenodd" clip-rule="evenodd" d="M17.2851 1.2087C17.2865 0.973055 17.2045 0.744512 17.0538 0.563391C16.903 0.382269 16.6931 0.260206 16.4612 0.218736C14.8335 -0.0722609 13.167 -0.0722609 11.5393 0.218736C11.3074 0.260206 11.0975 0.382269 10.9467 0.563391C10.796 0.744512 10.714 0.973055 10.7154 1.2087L10.7274 3.62462C10.1244 3.81461 9.53841 4.0576 8.97743 4.34959L7.27849 2.63165C7.11252 2.46442 6.89294 2.36103 6.65831 2.33963C6.42368 2.31824 6.18901 2.38021 5.99553 2.51466C4.63884 3.46035 3.46035 4.63884 2.51466 5.99553C2.23667 6.39452 2.28666 6.9355 2.63165 7.27849L4.34959 8.97743C4.05727 9.53879 3.81468 10.1247 3.62462 10.7284L1.2087 10.7154C0.973055 10.714 0.744512 10.796 0.563391 10.9467C0.382269 11.0975 0.260206 11.3074 0.218736 11.5393C-0.0722609 13.167 -0.0722609 14.8335 0.218736 16.4612C0.260206 16.6931 0.382269 16.903 0.563391 17.0538C0.744512 17.2045 0.973055 17.2865 1.2087 17.2851L3.62462 17.2731C3.81461 17.8761 4.0576 18.4621 4.34959 19.0231L2.63165 20.722C2.46442 20.888 2.36103 21.1076 2.33963 21.3422C2.31824 21.5768 2.38021 21.8115 2.51466 22.005C3.46035 23.3617 4.63884 24.5402 5.99553 25.4859C6.39452 25.7638 6.9355 25.7138 7.27849 25.3689L8.97743 23.6509C9.53841 23.9429 10.1244 24.1859 10.7284 24.3759L10.7154 26.7918C10.714 27.0275 10.796 27.256 10.9467 27.4371C11.0975 27.6182 11.3074 27.7403 11.5393 27.7818C13.1673 28.0728 14.8332 28.0728 16.4612 27.7818C16.6931 27.7403 16.903 27.6182 17.0538 27.4371C17.2045 27.256 17.2865 27.0275 17.2851 26.7918L17.2731 24.3759C17.8761 24.1859 18.4621 23.9429 19.0231 23.6509L20.722 25.3689C21.065 25.7138 21.606 25.7638 22.005 25.4859C23.3617 24.5402 24.5402 23.3617 25.4859 22.005C25.7638 21.606 25.7138 21.065 25.3689 20.722L23.6509 19.0231C23.9429 18.4621 24.1859 17.8761 24.3759 17.2721L26.7918 17.2851C27.0275 17.2865 27.256 17.2045 27.4371 17.0538C27.6182 16.903 27.7403 16.6931 27.7818 16.4612C28.0728 14.8335 28.0728 13.167 27.7818 11.5393C27.7403 11.3074 27.6182 11.0975 27.4371 10.9467C27.256 10.796 27.0275 10.714 26.7918 10.7154L24.3759 10.7274C24.1857 10.1241 23.9431 9.53852 23.6509 8.97743L25.3689 7.27849C25.7138 6.9355 25.7638 6.39452 25.4859 5.99553C24.5402 4.63884 23.3617 3.46035 22.005 2.51466C21.8115 2.38021 21.5768 2.31824 21.3422 2.33963C21.1076 2.36103 20.888 2.46442 20.722 2.63165L19.0231 4.34959C18.4617 4.05727 17.8758 3.81468 17.2721 3.62462L17.2851 1.2087ZM15.2812 2.06967L15.2692 4.37959C15.2679 4.60568 15.3434 4.82551 15.4833 5.00315C15.6231 5.18079 15.8191 5.30573 16.0392 5.35756C16.9692 5.57755 17.8571 5.94554 18.6691 6.44752C18.8615 6.56657 19.0886 6.61685 19.3133 6.59015C19.5379 6.56345 19.7469 6.46135 19.9061 6.30052L21.531 4.65858C22.1979 5.19548 22.805 5.80262 23.3419 6.46952L21.7 8.09446C21.5392 8.2536 21.4371 8.46258 21.4104 8.68725C21.3837 8.91193 21.4339 9.13902 21.553 9.33142C22.055 10.1434 22.423 11.0314 22.643 11.9613C22.6948 12.1814 22.8197 12.3774 22.9974 12.5172C23.175 12.6571 23.3948 12.7326 23.6209 12.7313L25.9308 12.7193C26.0228 13.5713 26.0228 14.4292 25.9308 15.2812L23.6209 15.2692C23.3948 15.2679 23.175 15.3434 22.9974 15.4833C22.8197 15.6231 22.6948 15.8191 22.643 16.0392C22.4232 16.9687 22.0552 17.8567 21.553 18.6691C21.4339 18.8615 21.3837 19.0886 21.4104 19.3133C21.4371 19.5379 21.5392 19.7469 21.7 19.906L23.3419 21.531C22.805 22.1979 22.1979 22.805 21.531 23.3419L19.9061 21.7C19.7469 21.5392 19.5379 21.4371 19.3133 21.4104C19.0886 21.3837 18.8615 21.4339 18.6691 21.553C17.8571 22.055 16.9692 22.423 16.0392 22.643C15.8191 22.6948 15.6231 22.8197 15.4833 22.9974C15.3434 23.175 15.2679 23.3948 15.2692 23.6209L15.2812 25.9308C14.4292 26.0228 13.5713 26.0228 12.7193 25.9308L12.7313 23.6209C12.7326 23.3948 12.6571 23.175 12.5172 22.9974C12.3774 22.8197 12.1814 22.6948 11.9613 22.643C11.0319 22.4232 10.1438 22.0552 9.33142 21.553C9.13902 21.4339 8.91193 21.3837 8.68726 21.4104C8.46258 21.4371 8.2536 21.5392 8.09446 21.7L6.46952 23.3419C5.80262 22.805 5.19548 22.1979 4.65858 21.531L6.30052 19.906C6.46135 19.7469 6.56345 19.5379 6.59015 19.3133C6.61685 19.0886 6.56657 18.8615 6.44752 18.6691C5.94536 17.8567 5.57732 16.9687 5.35756 16.0392C5.30573 15.8191 5.18079 15.6231 5.00315 15.4833C4.82551 15.3434 4.60568 15.2679 4.37959 15.2692L2.06967 15.2812C1.97768 14.4297 1.97768 13.5708 2.06967 12.7193L4.37959 12.7313C4.60568 12.7326 4.82551 12.6571 5.00315 12.5172C5.18079 12.3774 5.30573 12.1814 5.35756 11.9613C5.57755 11.0314 5.94554 10.1434 6.44752 9.33142C6.56657 9.13902 6.61685 8.91193 6.59015 8.68725C6.56345 8.46258 6.46135 8.2536 6.30052 8.09446L4.65858 6.46952C5.19548 5.80262 5.80262 5.19548 6.46952 4.65858L8.09446 6.30052C8.2536 6.46135 8.46258 6.56345 8.68726 6.59015C8.91193 6.61685 9.13902 6.56657 9.33142 6.44752C10.1434 5.94554 11.0314 5.57755 11.9613 5.35756C12.1814 5.30573 12.3774 5.18079 12.5172 5.00315C12.6571 4.82551 12.7326 4.60568 12.7313 4.37959L12.7193 2.06967C13.5713 1.97767 14.4292 1.97767 15.2812 2.06967Z" fill="#0A24AD"/>
<path fill-rule="evenodd" clip-rule="evenodd" d="M13.9098 7.00026C12.0775 7.00105 10.3205 7.72928 9.02489 9.02491C7.72927 10.3205 7.00104 12.0776 7.00024 13.9098C7.00104 15.7421 7.72927 17.4992 9.02489 18.7948C10.3205 20.0904 12.0775 20.8186 13.9098 20.8194C15.7421 20.8186 17.4991 20.0904 18.7948 18.7948C20.0904 17.4992 20.8186 15.7421 20.8194 13.9098C20.8186 12.0776 20.0904 10.3205 18.7948 9.02491C17.4991 7.72928 15.7421 7.00105 13.9098 7.00026ZM13.9098 9.00014C16.6197 9.00014 18.8195 11.2 18.8195 13.9098C18.8195 16.6197 16.6197 18.8195 13.9098 18.8195C11.2 18.8195 9.00012 16.6197 9.00012 13.9098C9.00012 11.2 11.2 9.00014 13.9098 9.00014Z" fill="#0A24AD"/>
<circle cx="20.9996" cy="20.9996" r="6.99958" fill="#F6F6F6"/>
<path fill-rule="evenodd" clip-rule="evenodd" d="M22.4076 15.5182C22.4081 15.4173 22.373 15.3193 22.3084 15.2417C22.2438 15.1641 22.1539 15.1118 22.0545 15.094C21.3569 14.9693 20.6428 14.9693 19.9453 15.094C19.8459 15.1118 19.7559 15.1641 19.6913 15.2417C19.6267 15.3193 19.5916 15.4173 19.5922 15.5182L19.5973 16.5536C19.3389 16.635 19.0878 16.7391 18.8474 16.8642L18.1194 16.128C18.0482 16.0564 17.9541 16.0121 17.8536 16.0029C17.753 15.9937 17.6525 16.0203 17.5696 16.0779C16.9882 16.4832 16.4832 16.9882 16.0779 17.5696C15.9588 17.7406 15.9802 17.9724 16.128 18.1194L16.8642 18.8474C16.739 19.088 16.635 19.3391 16.5536 19.5978L15.5182 19.5922C15.4173 19.5916 15.3193 19.6267 15.2417 19.6913C15.1641 19.7559 15.1118 19.8459 15.094 19.9453C14.9693 20.6428 14.9693 21.3569 15.094 22.0545C15.1118 22.1539 15.1641 22.2438 15.2417 22.3084C15.3193 22.373 15.4173 22.4081 15.5182 22.4076L16.5536 22.4024C16.635 22.6608 16.7391 22.9119 16.8642 23.1523L16.128 23.8804C16.0564 23.9515 16.0121 24.0456 16.0029 24.1462C15.9937 24.2467 16.0203 24.3473 16.0779 24.4302C16.4832 25.0116 16.9882 25.5166 17.5696 25.9219C17.7406 26.041 17.9724 26.0196 18.1194 25.8717L18.8474 25.1355C19.0878 25.2606 19.3389 25.3648 19.5978 25.4462L19.5922 26.4815C19.5916 26.5825 19.6267 26.6804 19.6913 26.758C19.7559 26.8357 19.8459 26.888 19.9453 26.9057C20.6429 27.0304 21.3568 27.0304 22.0545 26.9057C22.1539 26.888 22.2438 26.8357 22.3084 26.758C22.373 26.6804 22.4081 26.5825 22.4076 26.4815L22.4024 25.4462C22.6608 25.3648 22.9119 25.2606 23.1523 25.1355L23.8804 25.8717C24.0274 26.0196 24.2592 26.041 24.4302 25.9219C25.0116 25.5166 25.5166 25.0116 25.9219 24.4302C26.041 24.2592 26.0196 24.0274 25.8717 23.8804L25.1355 23.1523C25.2606 22.9119 25.3648 22.6608 25.4462 22.402L26.4815 22.4076C26.5825 22.4081 26.6804 22.373 26.758 22.3084C26.8357 22.2438 26.888 22.1539 26.9057 22.0545C27.0304 21.3569 27.0304 20.6428 26.9057 19.9453C26.888 19.8459 26.8357 19.7559 26.758 19.6913C26.6804 19.6267 26.5825 19.5916 26.4815 19.5922L25.4462 19.5973C25.3647 19.3388 25.2607 19.0879 25.1355 18.8474L25.8717 18.1194C26.0196 17.9724 26.041 17.7406 25.9219 17.5696C25.5166 16.9882 25.0116 16.4832 24.4302 16.0779C24.3473 16.0203 24.2467 15.9937 24.1462 16.0029C24.0456 16.0121 23.9515 16.0564 23.8804 16.128L23.1523 16.8642C22.9118 16.739 22.6607 16.635 22.402 16.5536L22.4076 15.5182ZM21.5488 15.8872L21.5437 16.8771C21.5431 16.974 21.5755 17.0682 21.6354 17.1443C21.6953 17.2204 21.7793 17.274 21.8736 17.2962C22.2721 17.3905 22.6527 17.5481 23.0006 17.7633C23.0831 17.8143 23.1804 17.8358 23.2767 17.8244C23.373 17.8129 23.4625 17.7692 23.5307 17.7003L24.2271 16.9966C24.5128 17.2267 24.773 17.4869 25.0031 17.7727L24.2995 18.469C24.2306 18.5372 24.1868 18.6268 24.1754 18.7231C24.1639 18.8194 24.1855 18.9167 24.2365 18.9991C24.4516 19.3471 24.6093 19.7276 24.7036 20.1261C24.7258 20.2204 24.7793 20.3044 24.8554 20.3644C24.9316 20.4243 25.0258 20.4566 25.1227 20.4561L26.1125 20.4509C26.152 20.816 26.152 21.1837 26.1125 21.5488L25.1227 21.5437C25.0258 21.5431 24.9316 21.5755 24.8554 21.6354C24.7793 21.6953 24.7258 21.7793 24.7036 21.8736C24.6094 22.2719 24.4517 22.6525 24.2365 23.0006C24.1855 23.0831 24.1639 23.1804 24.1754 23.2767C24.1868 23.373 24.2306 23.4625 24.2995 23.5307L25.0031 24.2271C24.773 24.5128 24.5128 24.773 24.2271 25.0031L23.5307 24.2995C23.4625 24.2306 23.373 24.1868 23.2767 24.1754C23.1804 24.1639 23.0831 24.1855 23.0006 24.2365C22.6527 24.4516 22.2721 24.6093 21.8736 24.7036C21.7793 24.7258 21.6953 24.7793 21.6354 24.8554C21.5755 24.9316 21.5431 25.0258 21.5437 25.1227L21.5488 26.1125C21.1837 26.152 20.816 26.152 20.4509 26.1125L20.4561 25.1227C20.4566 25.0258 20.4243 24.9316 20.3644 24.8554C20.3044 24.7793 20.2204 24.7258 20.1261 24.7036C19.7278 24.6094 19.3473 24.4517 18.9991 24.2365C18.9167 24.1855 18.8194 24.1639 18.7231 24.1754C18.6268 24.1868 18.5372 24.2306 18.469 24.2995L17.7727 25.0031C17.4869 24.773 17.2267 24.5128 16.9966 24.2271L17.7003 23.5307C17.7692 23.4625 17.8129 23.373 17.8244 23.2767C17.8358 23.1804 17.8143 23.0831 17.7633 23.0006C17.5481 22.6525 17.3904 22.2719 17.2962 21.8736C17.274 21.7793 17.2204 21.6953 17.1443 21.6354C17.0682 21.5755 16.974 21.5431 16.8771 21.5437L15.8872 21.5488C15.8478 21.1839 15.8478 20.8158 15.8872 20.4509L16.8771 20.4561C16.974 20.4566 17.0682 20.4243 17.1443 20.3644C17.2204 20.3044 17.274 20.2204 17.2962 20.1261C17.3905 19.7276 17.5481 19.3471 17.7633 18.9991C17.8143 18.9167 17.8358 18.8194 17.8244 18.7231C17.8129 18.6268 17.7692 18.5372 17.7003 18.469L16.9966 17.7727C17.2267 17.4869 17.4869 17.2267 17.7727 16.9966L18.469 17.7003C18.5372 17.7692 18.6268 17.8129 18.7231 17.8244C18.8194 17.8358 18.9167 17.8143 18.9991 17.7633C19.3471 17.5481 19.7276 17.3905 20.1261 17.2962C20.2204 17.274 20.3044 17.2204 20.3644 17.1443C20.4243 17.0682 20.4566 16.974 20.4561 16.8771L20.4509 15.8872C20.816 15.8478 21.1837 15.8478 21.5488 15.8872Z" fill="#0A24AD"/>
<path fill-rule="evenodd" clip-rule="evenodd" d="M20.9612 18.0001C20.176 18.0005 19.423 18.3125 18.8678 18.8678C18.3125 19.423 18.0005 20.176 18.0001 20.9612C18.0005 21.7464 18.3125 22.4994 18.8678 23.0546C19.423 23.6098 20.176 23.9219 20.9612 23.9223C21.7464 23.9219 22.4994 23.6098 23.0546 23.0546C23.6098 22.4994 23.9219 21.7464 23.9223 20.9612C23.9219 20.176 23.6098 19.423 23.0546 18.8678C22.4994 18.3125 21.7464 18.0005 20.9612 18.0001ZM20.9612 18.8572C22.1225 18.8572 23.0652 19.7999 23.0652 20.9612C23.0652 22.1225 22.1225 23.0652 20.9612 23.0652C19.7999 23.0652 18.8572 22.1225 18.8572 20.9612C18.8572 19.7999 19.7999 18.8572 20.9612 18.8572Z" fill="#0A24AD"/>
</svg>
