<svg width="314" height="218" viewBox="0 0 314 218" fill="none" xmlns="http://www.w3.org/2000/svg">
<mask id="mask0_1716_1350" style="mask-type:alpha" maskUnits="userSpaceOnUse" x="4" y="0" width="310" height="213">
<rect x="4.5" y="0.5" width="309" height="212" rx="9.5" fill="#F6F6F6" stroke="#EDEDED"/>
</mask>
<g mask="url(#mask0_1716_1350)">
<path d="M80.8929 116.25C80.8929 110.075 78.4283 104.154 74.0412 99.7877C69.6542 95.4216 63.7042 92.9688 57.5 92.9688C51.2958 92.9688 45.3458 95.4216 40.9588 99.7877C36.5717 104.154 34.1071 110.075 34.1071 116.25C34.1071 122.425 36.5717 128.346 40.9588 132.712C45.3458 137.078 51.2958 139.531 57.5 139.531C63.7042 139.531 69.6542 137.078 74.0412 132.712C78.4283 128.346 80.8929 122.425 80.8929 116.25ZM20.0714 116.25C20.0714 106.371 24.0148 96.896 31.034 89.9103C38.0532 82.9245 47.5733 79 57.5 79C67.4267 79 76.9468 82.9245 83.966 89.9103C90.9852 96.896 94.9286 106.371 94.9286 116.25C94.9286 126.129 90.9852 135.604 83.966 142.59C76.9468 149.575 67.4267 153.5 57.5 153.5C47.5733 153.5 38.0532 149.575 31.034 142.59C24.0148 135.604 20.0714 126.129 20.0714 116.25ZM6.41585 214.031H108.584C105.982 195.61 90.0746 181.438 70.8632 181.438H44.1368C24.9254 181.438 9.0183 195.61 6.41585 214.031ZM-8 219.357C-8 190.692 15.3344 167.469 44.1368 167.469H70.8632C99.6656 167.469 123 190.692 123 219.357C123 224.129 119.111 228 114.315 228H0.684598C-4.11094 228 -8 224.129 -8 219.357Z" fill="#0A24AD" fill-opacity="0.08"/>
</g>
</svg>
