<svg width="107" height="107" viewBox="0 0 107 107" fill="none" xmlns="http://www.w3.org/2000/svg">
<path d="M1 1H5.2V5.2H1V1Z" fill="black"/>
<path d="M5.2 1H9.4V5.2H5.2V1Z" fill="black"/>
<path d="M9.4 1H13.6V5.2H9.4V1Z" fill="black"/>
<path d="M13.6 1H17.8V5.2H13.6V1Z" fill="black"/>
<path d="M17.8 1H22V5.2H17.8V1Z" fill="black"/>
<path d="M22 1H26.2V5.2H22V1Z" fill="black"/>
<path d="M26.2 1H30.4V5.2H26.2V1Z" fill="black"/>
<path d="M43 1H47.2V5.2H43V1Z" fill="black"/>
<path d="M51.4 1H55.6V5.2H51.4V1Z" fill="black"/>
<path d="M55.6 1H59.8V5.2H55.6V1Z" fill="black"/>
<path d="M59.8 1H64V5.2H59.8V1Z" fill="black"/>
<path d="M64 1H68.2V5.2H64V1Z" fill="black"/>
<path d="M76.6 1H80.8V5.2H76.6V1Z" fill="black"/>
<path d="M80.8 1H85V5.2H80.8V1Z" fill="black"/>
<path d="M85 1H89.2V5.2H85V1Z" fill="black"/>
<path d="M89.2 1H93.4V5.2H89.2V1Z" fill="black"/>
<path d="M93.4 1H97.6V5.2H93.4V1Z" fill="black"/>
<path d="M97.6 1H101.8V5.2H97.6V1Z" fill="black"/>
<path d="M101.8 1H106V5.2H101.8V1Z" fill="black"/>
<path d="M1 5.2H5.2V9.4H1V5.2Z" fill="black"/>
<path d="M26.2 5.2H30.4V9.4H26.2V5.2Z" fill="black"/>
<path d="M43 5.2H47.2V9.4H43V5.2Z" fill="black"/>
<path d="M47.2 5.2H51.4V9.4H47.2V5.2Z" fill="black"/>
<path d="M59.8 5.2H64V9.4H59.8V5.2Z" fill="black"/>
<path d="M76.6 5.2H80.8V9.4H76.6V5.2Z" fill="black"/>
<path d="M101.8 5.2H106V9.4H101.8V5.2Z" fill="black"/>
<path d="M1 9.4H5.2V13.6H1V9.4Z" fill="black"/>
<path d="M9.4 9.4H13.6V13.6H9.4V9.4Z" fill="black"/>
<path d="M13.6 9.4H17.8V13.6H13.6V9.4Z" fill="black"/>
<path d="M17.8 9.4H22V13.6H17.8V9.4Z" fill="black"/>
<path d="M26.2 9.4H30.4V13.6H26.2V9.4Z" fill="black"/>
<path d="M34.6 9.4H38.8V13.6H34.6V9.4Z" fill="black"/>
<path d="M38.8 9.4H43V13.6H38.8V9.4Z" fill="black"/>
<path d="M47.2 9.4H51.4V13.6H47.2V9.4Z" fill="black"/>
<path d="M55.6 9.4H59.8V13.6H55.6V9.4Z" fill="black"/>
<path d="M64 9.4H68.2V13.6H64V9.4Z" fill="black"/>
<path d="M68.2 9.4H72.4V13.6H68.2V9.4Z" fill="black"/>
<path d="M76.6 9.4H80.8V13.6H76.6V9.4Z" fill="black"/>
<path d="M85 9.4H89.2V13.6H85V9.4Z" fill="black"/>
<path d="M89.2 9.4H93.4V13.6H89.2V9.4Z" fill="black"/>
<path d="M93.4 9.4H97.6V13.6H93.4V9.4Z" fill="black"/>
<path d="M101.8 9.4H106V13.6H101.8V9.4Z" fill="black"/>
<path d="M1 13.6H5.2V17.8H1V13.6Z" fill="black"/>
<path d="M9.4 13.6H13.6V17.8H9.4V13.6Z" fill="black"/>
<path d="M13.6 13.6H17.8V17.8H13.6V13.6Z" fill="black"/>
<path d="M17.8 13.6H22V17.8H17.8V13.6Z" fill="black"/>
<path d="M26.2 13.6H30.4V17.8H26.2V13.6Z" fill="black"/>
<path d="M34.6 13.6H38.8V17.8H34.6V13.6Z" fill="black"/>
<path d="M47.2 13.6H51.4V17.8H47.2V13.6Z" fill="black"/>
<path d="M55.6 13.6H59.8V17.8H55.6V13.6Z" fill="black"/>
<path d="M64 13.6H68.2V17.8H64V13.6Z" fill="black"/>
<path d="M76.6 13.6H80.8V17.8H76.6V13.6Z" fill="black"/>
<path d="M85 13.6H89.2V17.8H85V13.6Z" fill="black"/>
<path d="M89.2 13.6H93.4V17.8H89.2V13.6Z" fill="black"/>
<path d="M93.4 13.6H97.6V17.8H93.4V13.6Z" fill="black"/>
<path d="M101.8 13.6H106V17.8H101.8V13.6Z" fill="black"/>
<path d="M1 17.8H5.2V22H1V17.8Z" fill="black"/>
<path d="M9.4 17.8H13.6V22H9.4V17.8Z" fill="black"/>
<path d="M13.6 17.8H17.8V22H13.6V17.8Z" fill="black"/>
<path d="M17.8 17.8H22V22H17.8V17.8Z" fill="black"/>
<path d="M26.2 17.8H30.4V22H26.2V17.8Z" fill="black"/>
<path d="M51.4 17.8H55.6V22H51.4V17.8Z" fill="black"/>
<path d="M59.8 17.8H64V22H59.8V17.8Z" fill="black"/>
<path d="M64 17.8H68.2V22H64V17.8Z" fill="black"/>
<path d="M76.6 17.8H80.8V22H76.6V17.8Z" fill="black"/>
<path d="M85 17.8H89.2V22H85V17.8Z" fill="black"/>
<path d="M89.2 17.8H93.4V22H89.2V17.8Z" fill="black"/>
<path d="M93.4 17.8H97.6V22H93.4V17.8Z" fill="black"/>
<path d="M101.8 17.8H106V22H101.8V17.8Z" fill="black"/>
<path d="M1 22H5.2V26.2H1V22Z" fill="black"/>
<path d="M26.2 22H30.4V26.2H26.2V22Z" fill="black"/>
<path d="M47.2 22H51.4V26.2H47.2V22Z" fill="black"/>
<path d="M55.6 22H59.8V26.2H55.6V22Z" fill="black"/>
<path d="M59.8 22H64V26.2H59.8V22Z" fill="black"/>
<path d="M76.6 22H80.8V26.2H76.6V22Z" fill="black"/>
<path d="M101.8 22H106V26.2H101.8V22Z" fill="black"/>
<path d="M1 26.2H5.2V30.4H1V26.2Z" fill="black"/>
<path d="M5.2 26.2H9.4V30.4H5.2V26.2Z" fill="black"/>
<path d="M9.4 26.2H13.6V30.4H9.4V26.2Z" fill="black"/>
<path d="M13.6 26.2H17.8V30.4H13.6V26.2Z" fill="black"/>
<path d="M17.8 26.2H22V30.4H17.8V26.2Z" fill="black"/>
<path d="M22 26.2H26.2V30.4H22V26.2Z" fill="black"/>
<path d="M26.2 26.2H30.4V30.4H26.2V26.2Z" fill="black"/>
<path d="M34.6 26.2H38.8V30.4H34.6V26.2Z" fill="black"/>
<path d="M43 26.2H47.2V30.4H43V26.2Z" fill="black"/>
<path d="M51.4 26.2H55.6V30.4H51.4V26.2Z" fill="black"/>
<path d="M59.8 26.2H64V30.4H59.8V26.2Z" fill="black"/>
<path d="M68.2 26.2H72.4V30.4H68.2V26.2Z" fill="black"/>
<path d="M76.6 26.2H80.8V30.4H76.6V26.2Z" fill="black"/>
<path d="M80.8 26.2H85V30.4H80.8V26.2Z" fill="black"/>
<path d="M85 26.2H89.2V30.4H85V26.2Z" fill="black"/>
<path d="M89.2 26.2H93.4V30.4H89.2V26.2Z" fill="black"/>
<path d="M93.4 26.2H97.6V30.4H93.4V26.2Z" fill="black"/>
<path d="M97.6 26.2H101.8V30.4H97.6V26.2Z" fill="black"/>
<path d="M101.8 26.2H106V30.4H101.8V26.2Z" fill="black"/>
<path d="M38.8 30.4H43V34.6H38.8V30.4Z" fill="black"/>
<path d="M43 30.4H47.2V34.6H43V30.4Z" fill="black"/>
<path d="M55.6 30.4H59.8V34.6H55.6V30.4Z" fill="black"/>
<path d="M68.2 30.4H72.4V34.6H68.2V30.4Z" fill="black"/>
<path d="M13.6 34.6H17.8V38.8H13.6V34.6Z" fill="black"/>
<path d="M17.8 34.6H22V38.8H17.8V34.6Z" fill="black"/>
<path d="M26.2 34.6H30.4V38.8H26.2V34.6Z" fill="black"/>
<path d="M30.4 34.6H34.6V38.8H30.4V34.6Z" fill="black"/>
<path d="M47.2 34.6H51.4V38.8H47.2V34.6Z" fill="black"/>
<path d="M55.6 34.6H59.8V38.8H55.6V34.6Z" fill="black"/>
<path d="M59.8 34.6H64V38.8H59.8V34.6Z" fill="black"/>
<path d="M68.2 34.6H72.4V38.8H68.2V34.6Z" fill="black"/>
<path d="M89.2 34.6H93.4V38.8H89.2V34.6Z" fill="black"/>
<path d="M93.4 34.6H97.6V38.8H93.4V34.6Z" fill="black"/>
<path d="M5.2 38.8H9.4V43H5.2V38.8Z" fill="black"/>
<path d="M9.4 38.8H13.6V43H9.4V38.8Z" fill="black"/>
<path d="M13.6 38.8H17.8V43H13.6V38.8Z" fill="black"/>
<path d="M17.8 38.8H22V43H17.8V38.8Z" fill="black"/>
<path d="M22 38.8H26.2V43H22V38.8Z" fill="black"/>
<path d="M30.4 38.8H34.6V43H30.4V38.8Z" fill="black"/>
<path d="M43 38.8H47.2V43H43V38.8Z" fill="black"/>
<path d="M47.2 38.8H51.4V43H47.2V38.8Z" fill="black"/>
<path d="M51.4 38.8H55.6V43H51.4V38.8Z" fill="black"/>
<path d="M59.8 38.8H64V43H59.8V38.8Z" fill="black"/>
<path d="M64 38.8H68.2V43H64V38.8Z" fill="black"/>
<path d="M68.2 38.8H72.4V43H68.2V38.8Z" fill="black"/>
<path d="M76.6 38.8H80.8V43H76.6V38.8Z" fill="black"/>
<path d="M85 38.8H89.2V43H85V38.8Z" fill="black"/>
<path d="M93.4 38.8H97.6V43H93.4V38.8Z" fill="black"/>
<path d="M5.2 43H9.4V47.2H5.2V43Z" fill="black"/>
<path d="M22 43H26.2V47.2H22V43Z" fill="black"/>
<path d="M26.2 43H30.4V47.2H26.2V43Z" fill="black"/>
<path d="M30.4 43H34.6V47.2H30.4V43Z" fill="black"/>
<path d="M38.8 43H43V47.2H38.8V43Z" fill="black"/>
<path d="M47.2 43H51.4V47.2H47.2V43Z" fill="black"/>
<path d="M55.6 43H59.8V47.2H55.6V43Z" fill="black"/>
<path d="M59.8 43H64V47.2H59.8V43Z" fill="black"/>
<path d="M68.2 43H72.4V47.2H68.2V43Z" fill="black"/>
<path d="M85 43H89.2V47.2H85V43Z" fill="black"/>
<path d="M89.2 43H93.4V47.2H89.2V43Z" fill="black"/>
<path d="M93.4 43H97.6V47.2H93.4V43Z" fill="black"/>
<path d="M101.8 43H106V47.2H101.8V43Z" fill="black"/>
<path d="M9.4 47.2H13.6V51.4H9.4V47.2Z" fill="black"/>
<path d="M22 47.2H26.2V51.4H22V47.2Z" fill="black"/>
<path d="M34.6 47.2H38.8V51.4H34.6V47.2Z" fill="black"/>
<path d="M38.8 47.2H43V51.4H38.8V47.2Z" fill="black"/>
<path d="M55.6 47.2H59.8V51.4H55.6V47.2Z" fill="black"/>
<path d="M64 47.2H68.2V51.4H64V47.2Z" fill="black"/>
<path d="M72.4 47.2H76.6V51.4H72.4V47.2Z" fill="black"/>
<path d="M89.2 47.2H93.4V51.4H89.2V47.2Z" fill="black"/>
<path d="M93.4 47.2H97.6V51.4H93.4V47.2Z" fill="black"/>
<path d="M101.8 47.2H106V51.4H101.8V47.2Z" fill="black"/>
<path d="M5.2 51.4H9.4V55.6H5.2V51.4Z" fill="black"/>
<path d="M9.4 51.4H13.6V55.6H9.4V51.4Z" fill="black"/>
<path d="M13.6 51.4H17.8V55.6H13.6V51.4Z" fill="black"/>
<path d="M22 51.4H26.2V55.6H22V51.4Z" fill="black"/>
<path d="M26.2 51.4H30.4V55.6H26.2V51.4Z" fill="black"/>
<path d="M34.6 51.4H38.8V55.6H34.6V51.4Z" fill="black"/>
<path d="M38.8 51.4H43V55.6H38.8V51.4Z" fill="black"/>
<path d="M55.6 51.4H59.8V55.6H55.6V51.4Z" fill="black"/>
<path d="M59.8 51.4H64V55.6H59.8V51.4Z" fill="black"/>
<path d="M64 51.4H68.2V55.6H64V51.4Z" fill="black"/>
<path d="M68.2 51.4H72.4V55.6H68.2V51.4Z" fill="black"/>
<path d="M85 51.4H89.2V55.6H85V51.4Z" fill="black"/>
<path d="M1 55.6H5.2V59.8H1V55.6Z" fill="black"/>
<path d="M9.4 55.6H13.6V59.8H9.4V55.6Z" fill="black"/>
<path d="M13.6 55.6H17.8V59.8H13.6V55.6Z" fill="black"/>
<path d="M17.8 55.6H22V59.8H17.8V55.6Z" fill="black"/>
<path d="M22 55.6H26.2V59.8H22V55.6Z" fill="black"/>
<path d="M30.4 55.6H34.6V59.8H30.4V55.6Z" fill="black"/>
<path d="M34.6 55.6H38.8V59.8H34.6V55.6Z" fill="black"/>
<path d="M38.8 55.6H43V59.8H38.8V55.6Z" fill="black"/>
<path d="M43 55.6H47.2V59.8H43V55.6Z" fill="black"/>
<path d="M51.4 55.6H55.6V59.8H51.4V55.6Z" fill="black"/>
<path d="M55.6 55.6H59.8V59.8H55.6V55.6Z" fill="black"/>
<path d="M59.8 55.6H64V59.8H59.8V55.6Z" fill="black"/>
<path d="M68.2 55.6H72.4V59.8H68.2V55.6Z" fill="black"/>
<path d="M76.6 55.6H80.8V59.8H76.6V55.6Z" fill="black"/>
<path d="M80.8 55.6H85V59.8H80.8V55.6Z" fill="black"/>
<path d="M1 59.8H5.2V64H1V59.8Z" fill="black"/>
<path d="M5.2 59.8H9.4V64H5.2V59.8Z" fill="black"/>
<path d="M17.8 59.8H22V64H17.8V59.8Z" fill="black"/>
<path d="M26.2 59.8H30.4V64H26.2V59.8Z" fill="black"/>
<path d="M30.4 59.8H34.6V64H30.4V59.8Z" fill="black"/>
<path d="M43 59.8H47.2V64H43V59.8Z" fill="black"/>
<path d="M47.2 59.8H51.4V64H47.2V59.8Z" fill="black"/>
<path d="M59.8 59.8H64V64H59.8V59.8Z" fill="black"/>
<path d="M68.2 59.8H72.4V64H68.2V59.8Z" fill="black"/>
<path d="M76.6 59.8H80.8V64H76.6V59.8Z" fill="black"/>
<path d="M89.2 59.8H93.4V64H89.2V59.8Z" fill="black"/>
<path d="M97.6 59.8H101.8V64H97.6V59.8Z" fill="black"/>
<path d="M101.8 59.8H106V64H101.8V59.8Z" fill="black"/>
<path d="M1 64H5.2V68.2H1V64Z" fill="black"/>
<path d="M9.4 64H13.6V68.2H9.4V64Z" fill="black"/>
<path d="M13.6 64H17.8V68.2H13.6V64Z" fill="black"/>
<path d="M43 64H47.2V68.2H43V64Z" fill="black"/>
<path d="M47.2 64H51.4V68.2H47.2V64Z" fill="black"/>
<path d="M59.8 64H64V68.2H59.8V64Z" fill="black"/>
<path d="M64 64H68.2V68.2H64V64Z" fill="black"/>
<path d="M72.4 64H76.6V68.2H72.4V64Z" fill="black"/>
<path d="M76.6 64H80.8V68.2H76.6V64Z" fill="black"/>
<path d="M93.4 64H97.6V68.2H93.4V64Z" fill="black"/>
<path d="M97.6 64H101.8V68.2H97.6V64Z" fill="black"/>
<path d="M101.8 64H106V68.2H101.8V64Z" fill="black"/>
<path d="M1 68.2H5.2V72.4H1V68.2Z" fill="black"/>
<path d="M17.8 68.2H22V72.4H17.8V68.2Z" fill="black"/>
<path d="M22 68.2H26.2V72.4H22V68.2Z" fill="black"/>
<path d="M26.2 68.2H30.4V72.4H26.2V68.2Z" fill="black"/>
<path d="M38.8 68.2H43V72.4H38.8V68.2Z" fill="black"/>
<path d="M51.4 68.2H55.6V72.4H51.4V68.2Z" fill="black"/>
<path d="M68.2 68.2H72.4V72.4H68.2V68.2Z" fill="black"/>
<path d="M72.4 68.2H76.6V72.4H72.4V68.2Z" fill="black"/>
<path d="M76.6 68.2H80.8V72.4H76.6V68.2Z" fill="black"/>
<path d="M80.8 68.2H85V72.4H80.8V68.2Z" fill="black"/>
<path d="M85 68.2H89.2V72.4H85V68.2Z" fill="black"/>
<path d="M34.6 72.4H38.8V76.6H34.6V72.4Z" fill="black"/>
<path d="M47.2 72.4H51.4V76.6H47.2V72.4Z" fill="black"/>
<path d="M55.6 72.4H59.8V76.6H55.6V72.4Z" fill="black"/>
<path d="M59.8 72.4H64V76.6H59.8V72.4Z" fill="black"/>
<path d="M64 72.4H68.2V76.6H64V72.4Z" fill="black"/>
<path d="M68.2 72.4H72.4V76.6H68.2V72.4Z" fill="black"/>
<path d="M85 72.4H89.2V76.6H85V72.4Z" fill="black"/>
<path d="M93.4 72.4H97.6V76.6H93.4V72.4Z" fill="black"/>
<path d="M97.6 72.4H101.8V76.6H97.6V72.4Z" fill="black"/>
<path d="M1 76.6H5.2V80.8H1V76.6Z" fill="black"/>
<path d="M5.2 76.6H9.4V80.8H5.2V76.6Z" fill="black"/>
<path d="M9.4 76.6H13.6V80.8H9.4V76.6Z" fill="black"/>
<path d="M13.6 76.6H17.8V80.8H13.6V76.6Z" fill="black"/>
<path d="M17.8 76.6H22V80.8H17.8V76.6Z" fill="black"/>
<path d="M22 76.6H26.2V80.8H22V76.6Z" fill="black"/>
<path d="M26.2 76.6H30.4V80.8H26.2V76.6Z" fill="black"/>
<path d="M34.6 76.6H38.8V80.8H34.6V76.6Z" fill="black"/>
<path d="M38.8 76.6H43V80.8H38.8V76.6Z" fill="black"/>
<path d="M43 76.6H47.2V80.8H43V76.6Z" fill="black"/>
<path d="M47.2 76.6H51.4V80.8H47.2V76.6Z" fill="black"/>
<path d="M59.8 76.6H64V80.8H59.8V76.6Z" fill="black"/>
<path d="M64 76.6H68.2V80.8H64V76.6Z" fill="black"/>
<path d="M68.2 76.6H72.4V80.8H68.2V76.6Z" fill="black"/>
<path d="M76.6 76.6H80.8V80.8H76.6V76.6Z" fill="black"/>
<path d="M85 76.6H89.2V80.8H85V76.6Z" fill="black"/>
<path d="M89.2 76.6H93.4V80.8H89.2V76.6Z" fill="black"/>
<path d="M93.4 76.6H97.6V80.8H93.4V76.6Z" fill="black"/>
<path d="M101.8 76.6H106V80.8H101.8V76.6Z" fill="black"/>
<path d="M1 80.8H5.2V85H1V80.8Z" fill="black"/>
<path d="M26.2 80.8H30.4V85H26.2V80.8Z" fill="black"/>
<path d="M38.8 80.8H43V85H38.8V80.8Z" fill="black"/>
<path d="M55.6 80.8H59.8V85H55.6V80.8Z" fill="black"/>
<path d="M59.8 80.8H64V85H59.8V80.8Z" fill="black"/>
<path d="M68.2 80.8H72.4V85H68.2V80.8Z" fill="black"/>
<path d="M85 80.8H89.2V85H85V80.8Z" fill="black"/>
<path d="M101.8 80.8H106V85H101.8V80.8Z" fill="black"/>
<path d="M1 85H5.2V89.2H1V85Z" fill="black"/>
<path d="M9.4 85H13.6V89.2H9.4V85Z" fill="black"/>
<path d="M13.6 85H17.8V89.2H13.6V85Z" fill="black"/>
<path d="M17.8 85H22V89.2H17.8V85Z" fill="black"/>
<path d="M26.2 85H30.4V89.2H26.2V85Z" fill="black"/>
<path d="M34.6 85H38.8V89.2H34.6V85Z" fill="black"/>
<path d="M43 85H47.2V89.2H43V85Z" fill="black"/>
<path d="M55.6 85H59.8V89.2H55.6V85Z" fill="black"/>
<path d="M64 85H68.2V89.2H64V85Z" fill="black"/>
<path d="M68.2 85H72.4V89.2H68.2V85Z" fill="black"/>
<path d="M72.4 85H76.6V89.2H72.4V85Z" fill="black"/>
<path d="M76.6 85H80.8V89.2H76.6V85Z" fill="black"/>
<path d="M80.8 85H85V89.2H80.8V85Z" fill="black"/>
<path d="M85 85H89.2V89.2H85V85Z" fill="black"/>
<path d="M93.4 85H97.6V89.2H93.4V85Z" fill="black"/>
<path d="M97.6 85H101.8V89.2H97.6V85Z" fill="black"/>
<path d="M101.8 85H106V89.2H101.8V85Z" fill="black"/>
<path d="M1 89.2H5.2V93.4H1V89.2Z" fill="black"/>
<path d="M9.4 89.2H13.6V93.4H9.4V89.2Z" fill="black"/>
<path d="M13.6 89.2H17.8V93.4H13.6V89.2Z" fill="black"/>
<path d="M17.8 89.2H22V93.4H17.8V89.2Z" fill="black"/>
<path d="M26.2 89.2H30.4V93.4H26.2V89.2Z" fill="black"/>
<path d="M34.6 89.2H38.8V93.4H34.6V89.2Z" fill="black"/>
<path d="M38.8 89.2H43V93.4H38.8V89.2Z" fill="black"/>
<path d="M43 89.2H47.2V93.4H43V89.2Z" fill="black"/>
<path d="M51.4 89.2H55.6V93.4H51.4V89.2Z" fill="black"/>
<path d="M59.8 89.2H64V93.4H59.8V89.2Z" fill="black"/>
<path d="M64 89.2H68.2V93.4H64V89.2Z" fill="black"/>
<path d="M68.2 89.2H72.4V93.4H68.2V89.2Z" fill="black"/>
<path d="M76.6 89.2H80.8V93.4H76.6V89.2Z" fill="black"/>
<path d="M80.8 89.2H85V93.4H80.8V89.2Z" fill="black"/>
<path d="M85 89.2H89.2V93.4H85V89.2Z" fill="black"/>
<path d="M89.2 89.2H93.4V93.4H89.2V89.2Z" fill="black"/>
<path d="M101.8 89.2H106V93.4H101.8V89.2Z" fill="black"/>
<path d="M1 93.4H5.2V97.6H1V93.4Z" fill="black"/>
<path d="M9.4 93.4H13.6V97.6H9.4V93.4Z" fill="black"/>
<path d="M13.6 93.4H17.8V97.6H13.6V93.4Z" fill="black"/>
<path d="M17.8 93.4H22V97.6H17.8V93.4Z" fill="black"/>
<path d="M26.2 93.4H30.4V97.6H26.2V93.4Z" fill="black"/>
<path d="M38.8 93.4H43V97.6H38.8V93.4Z" fill="black"/>
<path d="M43 93.4H47.2V97.6H43V93.4Z" fill="black"/>
<path d="M55.6 93.4H59.8V97.6H55.6V93.4Z" fill="black"/>
<path d="M59.8 93.4H64V97.6H59.8V93.4Z" fill="black"/>
<path d="M64 93.4H68.2V97.6H64V93.4Z" fill="black"/>
<path d="M76.6 93.4H80.8V97.6H76.6V93.4Z" fill="black"/>
<path d="M85 93.4H89.2V97.6H85V93.4Z" fill="black"/>
<path d="M97.6 93.4H101.8V97.6H97.6V93.4Z" fill="black"/>
<path d="M101.8 93.4H106V97.6H101.8V93.4Z" fill="black"/>
<path d="M1 97.6H5.2V101.8H1V97.6Z" fill="black"/>
<path d="M26.2 97.6H30.4V101.8H26.2V97.6Z" fill="black"/>
<path d="M43 97.6H47.2V101.8H43V97.6Z" fill="black"/>
<path d="M68.2 97.6H72.4V101.8H68.2V97.6Z" fill="black"/>
<path d="M80.8 97.6H85V101.8H80.8V97.6Z" fill="black"/>
<path d="M85 97.6H89.2V101.8H85V97.6Z" fill="black"/>
<path d="M89.2 97.6H93.4V101.8H89.2V97.6Z" fill="black"/>
<path d="M97.6 97.6H101.8V101.8H97.6V97.6Z" fill="black"/>
<path d="M101.8 97.6H106V101.8H101.8V97.6Z" fill="black"/>
<path d="M1 101.8H5.2V106H1V101.8Z" fill="black"/>
<path d="M5.2 101.8H9.4V106H5.2V101.8Z" fill="black"/>
<path d="M9.4 101.8H13.6V106H9.4V101.8Z" fill="black"/>
<path d="M13.6 101.8H17.8V106H13.6V101.8Z" fill="black"/>
<path d="M17.8 101.8H22V106H17.8V101.8Z" fill="black"/>
<path d="M22 101.8H26.2V106H22V101.8Z" fill="black"/>
<path d="M26.2 101.8H30.4V106H26.2V101.8Z" fill="black"/>
<path d="M47.2 101.8H51.4V106H47.2V101.8Z" fill="black"/>
<path d="M59.8 101.8H64V106H59.8V101.8Z" fill="black"/>
<path d="M72.4 101.8H76.6V106H72.4V101.8Z" fill="black"/>
<path d="M85 101.8H89.2V106H85V101.8Z" fill="black"/>
<path d="M89.2 101.8H93.4V106H89.2V101.8Z" fill="black"/>
<path d="M101.8 101.8H106V106H101.8V101.8Z" fill="black"/>
<path d="M5.2 1H1V5.2M5.2 1V5.2M5.2 1H9.4M5.2 5.2H1M5.2 5.2H9.4M5.2 5.2V9.4M1 5.2V9.4M9.4 1V5.2M9.4 1H13.6M9.4 5.2H13.6M13.6 1V5.2M13.6 1H17.8M13.6 5.2H17.8M17.8 1V5.2M17.8 1H22M17.8 5.2H22M22 1V5.2M22 1H26.2M22 5.2H26.2M26.2 1V5.2M26.2 1H30.4V5.2M26.2 5.2H30.4M26.2 5.2V9.4M30.4 5.2V9.4M47.2 5.2V1H43V5.2M47.2 5.2H43M47.2 5.2V9.4M47.2 5.2H51.4M43 5.2V9.4M55.6 1H51.4V5.2M55.6 1V5.2M55.6 1H59.8M55.6 5.2H51.4M55.6 5.2H59.8M51.4 5.2V9.4M59.8 1V5.2M59.8 1H64M59.8 5.2H64M59.8 5.2V9.4M64 1V5.2M64 1H68.2V5.2H64M64 5.2V9.4M80.8 1H76.6V5.2M80.8 1V5.2M80.8 1H85M80.8 5.2H76.6M80.8 5.2H85M80.8 5.2V9.4M76.6 5.2V9.4M85 1V5.2M85 1H89.2M85 5.2H89.2M89.2 1V5.2M89.2 1H93.4M89.2 5.2H93.4M93.4 1V5.2M93.4 1H97.6M93.4 5.2H97.6M97.6 1V5.2M97.6 1H101.8M97.6 5.2H101.8M101.8 1V5.2M101.8 1H106V5.2M101.8 5.2H106M101.8 5.2V9.4M106 5.2V9.4M5.2 9.4H1M5.2 9.4V13.6M1 9.4V13.6M30.4 9.4H26.2M30.4 9.4V13.6M26.2 9.4V13.6M47.2 9.4H43M47.2 9.4H51.4M47.2 9.4V13.6M43 9.4H38.8M43 9.4V13.6H38.8M51.4 9.4V13.6M64 9.4H59.8M64 9.4H68.2M64 9.4V13.6M59.8 9.4H55.6V13.6M59.8 9.4V13.6M80.8 9.4H76.6M80.8 9.4V13.6M76.6 9.4V13.6M106 9.4H101.8M106 9.4V13.6M101.8 9.4V13.6M5.2 13.6H1M5.2 13.6V17.8M1 13.6V17.8M13.6 9.4H9.4V13.6M13.6 9.4V13.6M13.6 9.4H17.8M13.6 13.6H9.4M13.6 13.6H17.8M13.6 13.6V17.8M9.4 13.6V17.8M17.8 9.4V13.6M17.8 9.4H22V13.6M17.8 13.6H22M17.8 13.6V17.8M22 13.6V17.8M30.4 13.6H26.2M30.4 13.6V17.8M26.2 13.6V17.8M38.8 9.4H34.6V13.6M38.8 9.4V13.6M38.8 13.6H34.6M38.8 13.6V17.8H34.6V13.6M51.4 13.6H47.2M51.4 13.6V17.8M47.2 13.6V17.8H51.4M59.8 13.6H55.6M59.8 13.6V17.8M55.6 13.6V17.8M68.2 9.4V13.6M68.2 9.4H72.4V13.6H68.2M68.2 13.6H64M68.2 13.6V17.8M64 13.6V17.8M80.8 13.6H76.6M80.8 13.6V17.8M76.6 13.6V17.8M89.2 9.4H85V13.6M89.2 9.4V13.6M89.2 9.4H93.4M89.2 13.6H85M89.2 13.6H93.4M89.2 13.6V17.8M85 13.6V17.8M93.4 9.4V13.6M93.4 9.4H97.6V13.6M93.4 13.6H97.6M93.4 13.6V17.8M97.6 13.6V17.8M106 13.6H101.8M106 13.6V17.8M101.8 13.6V17.8M5.2 17.8H1M5.2 17.8V22M1 17.8V22M13.6 17.8H9.4M13.6 17.8H17.8M13.6 17.8V22M9.4 17.8V22H13.6M17.8 17.8H22M17.8 17.8V22M22 17.8V22H17.8M30.4 17.8H26.2M30.4 17.8V22M26.2 17.8V22M51.4 17.8H55.6M51.4 17.8V22M59.8 17.8H55.6M59.8 17.8H64M59.8 17.8V22M55.6 17.8V22M68.2 17.8H64M68.2 17.8V22H64M64 17.8V22M80.8 17.8H76.6M80.8 17.8V22M76.6 17.8V22M89.2 17.8H85M89.2 17.8H93.4M89.2 17.8V22M85 17.8V22H89.2M93.4 17.8H97.6M93.4 17.8V22M97.6 17.8V22H93.4M106 17.8H101.8M106 17.8V22M101.8 17.8V22M5.2 22H1M5.2 22V26.2M1 22V26.2M13.6 22H17.8M30.4 22H26.2M30.4 22V26.2M26.2 22V26.2M55.6 22H51.4M55.6 22H59.8M55.6 22V26.2M51.4 22H47.2V26.2M51.4 22V26.2M64 22H59.8M64 22V26.2M59.8 22V26.2M80.8 22H76.6M80.8 22V26.2M76.6 22V26.2M89.2 22H93.4M106 22H101.8M106 22V26.2M101.8 22V26.2M5.2 26.2H1M5.2 26.2V30.4M5.2 26.2H9.4M1 26.2V30.4H5.2M30.4 26.2H26.2M30.4 26.2V30.4H26.2M26.2 26.2H22M26.2 26.2V30.4M51.4 26.2H47.2M51.4 26.2H55.6M51.4 26.2V30.4H55.6M47.2 26.2H43V30.4M47.2 26.2V30.4M59.8 26.2H55.6M59.8 26.2H64M59.8 26.2V30.4M55.6 26.2V30.4M64 26.2V30.4H59.8M80.8 26.2H76.6M80.8 26.2V30.4M80.8 26.2H85M76.6 26.2V30.4H80.8M106 26.2H101.8M106 26.2V30.4H101.8M101.8 26.2H97.6M101.8 26.2V30.4M5.2 30.4H9.4M9.4 26.2V30.4M9.4 26.2H13.6M9.4 30.4H13.6M13.6 26.2V30.4M13.6 26.2H17.8M13.6 30.4H17.8M17.8 26.2V30.4M17.8 26.2H22M17.8 30.4H22M22 26.2V30.4M22 30.4H26.2M38.8 30.4V26.2H34.6V30.4H38.8ZM38.8 30.4H43M38.8 30.4V34.6H43M47.2 30.4H43M47.2 30.4V34.6M43 30.4V34.6M55.6 30.4H59.8M55.6 30.4V34.6M59.8 30.4V34.6M72.4 30.4V26.2H68.2V30.4M72.4 30.4H68.2M72.4 30.4V34.6M68.2 30.4V34.6M80.8 30.4H85M85 26.2V30.4M85 26.2H89.2M85 30.4H89.2M89.2 26.2V30.4M89.2 26.2H93.4M89.2 30.4H93.4M93.4 26.2V30.4M93.4 26.2H97.6M93.4 30.4H97.6M97.6 26.2V30.4M97.6 30.4H101.8M43 34.6H47.2M47.2 34.6H51.4V38.8M47.2 34.6V38.8M59.8 34.6H55.6M59.8 34.6V38.8M59.8 34.6H64V38.8M55.6 34.6V38.8M72.4 34.6H68.2M72.4 34.6V38.8M68.2 34.6V38.8M17.8 34.6H13.6V38.8M17.8 34.6V38.8M17.8 34.6H22V38.8M17.8 38.8H13.6M17.8 38.8H22M17.8 38.8V43M13.6 38.8H9.4M13.6 38.8V43M22 38.8V43M22 38.8H26.2M30.4 34.6H26.2V38.8M30.4 34.6V38.8M30.4 34.6H34.6V38.8M30.4 38.8H26.2M30.4 38.8H34.6M30.4 38.8V43M26.2 38.8V43M34.6 38.8V43M51.4 38.8H47.2M51.4 38.8V43M51.4 38.8H55.6M47.2 38.8H43V43M47.2 38.8V43M59.8 38.8H55.6M59.8 38.8H64M59.8 38.8V43M55.6 38.8V43M64 38.8V43M64 38.8H68.2M72.4 38.8H68.2M72.4 38.8V43M68.2 38.8V43M93.4 34.6H89.2V38.8M93.4 34.6V38.8M93.4 34.6H97.6V38.8M93.4 38.8H89.2M93.4 38.8H97.6M93.4 38.8V43M89.2 38.8H85V43M89.2 38.8V43M97.6 38.8V43M9.4 38.8H5.2V43M9.4 38.8V43M9.4 43H5.2M9.4 43H13.6M9.4 43V47.2M5.2 43V47.2H9.4M13.6 43H17.8M17.8 43H22M22 43H26.2M22 43V47.2M26.2 43V47.2M26.2 43H30.4M34.6 43H30.4M34.6 43V47.2M30.4 43V47.2M47.2 43H43M47.2 43H51.4M47.2 43V47.2H51.4V43M43 43H38.8V47.2M43 43V47.2M51.4 43H55.6M55.6 43H59.8M55.6 43V47.2M64 43H59.8M64 43H68.2M64 43V47.2M59.8 43V47.2M68.2 43H72.4M68.2 43V47.2M72.4 43V47.2M89.2 43H85M89.2 43V47.2M89.2 43H93.4M85 43V47.2H89.2M97.6 43H93.4M97.6 43V47.2M93.4 43V47.2M9.4 47.2H13.6V51.4M9.4 47.2V51.4M26.2 47.2H22M26.2 47.2H30.4M26.2 47.2V51.4M22 47.2V51.4M30.4 47.2H34.6M34.6 47.2H38.8M34.6 47.2V51.4M43 47.2H38.8M43 47.2V51.4M38.8 47.2V51.4M59.8 47.2H55.6M59.8 47.2H64M59.8 47.2V51.4M55.6 47.2V51.4M64 47.2H68.2M64 47.2V51.4M72.4 47.2H68.2M72.4 47.2H76.6V51.4H72.4M72.4 47.2V51.4M68.2 47.2V51.4M89.2 47.2H93.4M89.2 47.2V51.4M93.4 47.2H97.6M93.4 47.2V51.4M97.6 47.2V51.4H93.4M106 47.2V43H101.8V47.2M106 47.2H101.8M106 47.2V51.4H101.8V47.2M13.6 51.4H9.4M13.6 51.4V55.6M13.6 51.4H17.8V55.6M9.4 51.4H5.2V55.6M9.4 51.4V55.6M26.2 51.4H22M26.2 51.4V55.6M26.2 51.4H30.4V55.6M22 51.4V55.6M38.8 51.4H34.6M38.8 51.4H43M38.8 51.4V55.6M34.6 51.4V55.6M43 51.4V55.6M59.8 51.4H55.6M59.8 51.4V55.6M59.8 51.4H64M55.6 51.4V55.6M68.2 51.4H64M68.2 51.4V55.6M68.2 51.4H72.4M64 51.4V55.6M72.4 51.4V55.6M93.4 51.4H89.2M89.2 51.4H85V55.6M89.2 51.4V55.6H85M9.4 55.6H5.2M9.4 55.6H13.6M9.4 55.6V59.8M5.2 55.6H1V59.8M5.2 55.6V59.8M13.6 55.6H17.8M13.6 55.6V59.8M17.8 55.6V59.8M17.8 55.6H22M26.2 55.6H22M26.2 55.6H30.4M26.2 55.6V59.8M22 55.6V59.8M30.4 55.6H34.6M30.4 55.6V59.8M38.8 55.6H34.6M38.8 55.6H43M38.8 55.6V59.8M34.6 55.6V59.8M43 55.6V59.8M43 55.6H47.2V59.8M59.8 55.6H55.6M59.8 55.6H64M59.8 55.6V59.8M55.6 55.6H51.4V59.8M55.6 55.6V59.8M64 55.6H68.2M64 55.6V59.8M68.2 55.6H72.4M68.2 55.6V59.8M72.4 55.6V59.8M85 55.6H80.8M85 55.6V59.8H80.8M5.2 59.8H1M5.2 59.8V64M5.2 59.8H9.4M1 59.8V64M13.6 59.8H9.4M13.6 59.8H17.8M9.4 59.8V64M17.8 59.8H22M17.8 59.8V64M22 59.8H26.2M22 59.8V64H17.8M26.2 59.8H30.4M26.2 59.8V64H30.4M34.6 59.8H30.4M34.6 59.8H38.8M34.6 59.8V64H30.4M30.4 59.8V64M38.8 59.8H43M43 59.8H47.2M43 59.8V64M47.2 59.8V64M47.2 59.8H51.4M55.6 59.8H51.4M55.6 59.8H59.8M51.4 59.8V64M59.8 59.8H64M59.8 59.8V64M64 59.8V64M72.4 59.8H68.2M72.4 59.8V64M68.2 59.8V64M80.8 55.6H76.6V59.8M80.8 55.6V59.8M80.8 59.8H76.6M80.8 59.8V64M76.6 59.8V64M5.2 64H1M5.2 64H9.4M5.2 64V68.2M1 64V68.2M9.4 64H13.6M9.4 64V68.2H13.6M17.8 64H13.6M17.8 64V68.2M47.2 64H43M47.2 64H51.4M47.2 64V68.2M43 64V68.2M51.4 64V68.2M64 64H59.8M64 64V68.2M64 64H68.2M59.8 64V68.2H64M72.4 64H68.2M72.4 64H76.6M72.4 64V68.2M68.2 64V68.2M80.8 64H76.6M80.8 64V68.2M76.6 64V68.2M93.4 64V59.8H89.2V64H93.4ZM93.4 64H97.6M93.4 64V68.2H97.6M101.8 59.8H97.6V64M101.8 59.8V64M101.8 59.8H106V64M101.8 64H97.6M101.8 64H106M101.8 64V68.2M97.6 64V68.2M106 64V68.2H101.8M5.2 68.2H1M5.2 68.2V72.4H1V68.2M13.6 64V68.2M13.6 68.2H17.8M17.8 68.2H22M17.8 68.2V72.4H22M47.2 68.2H43M47.2 68.2H51.4M43 68.2H38.8V72.4M43 68.2V72.4H38.8M51.4 68.2H55.6V72.4M51.4 68.2V72.4M64 68.2H68.2M68.2 68.2H72.4M68.2 68.2V72.4M76.6 68.2H72.4M76.6 68.2H80.8M76.6 68.2V72.4M72.4 68.2V72.4M80.8 68.2V72.4M80.8 68.2H85M97.6 68.2H101.8M22 68.2V72.4M22 68.2H26.2M22 72.4H26.2M26.2 68.2V72.4M26.2 68.2H30.4V72.4H26.2M38.8 72.4H34.6V76.6M38.8 72.4V76.6M55.6 72.4H51.4M55.6 72.4H59.8M55.6 72.4V76.6H59.8M51.4 72.4H47.2V76.6M51.4 72.4V76.6M72.4 72.4H68.2M72.4 72.4H76.6M72.4 72.4V76.6M68.2 72.4H64M68.2 72.4V76.6M76.6 72.4H80.8M80.8 72.4H85M85 68.2V72.4M85 68.2H89.2V72.4M85 72.4H89.2M85 72.4V76.6M89.2 72.4V76.6M38.8 76.6H34.6M38.8 76.6V80.8M38.8 76.6H43M34.6 76.6V80.8H38.8M51.4 76.6H47.2M51.4 76.6V80.8H47.2M47.2 76.6H43M47.2 76.6V80.8M59.8 72.4V76.6M59.8 72.4H64M59.8 76.6H64M59.8 76.6V80.8M64 72.4V76.6M64 76.6H68.2M64 76.6V80.8M68.2 76.6H72.4M68.2 76.6V80.8M72.4 76.6V80.8M89.2 76.6H85M89.2 76.6V80.8M89.2 76.6H93.4M85 76.6V80.8M97.6 72.4H93.4V76.6M97.6 72.4V76.6M97.6 72.4H101.8V76.6M97.6 76.6H93.4M97.6 76.6H101.8M97.6 76.6V80.8H93.4M93.4 76.6V80.8M101.8 76.6H106V80.8M101.8 76.6V80.8M5.2 76.6H1V80.8M5.2 76.6V80.8M5.2 76.6H9.4M5.2 80.8H1M5.2 80.8H9.4M5.2 80.8V85M1 80.8V85M9.4 76.6V80.8M9.4 76.6H13.6M9.4 80.8H13.6M13.6 76.6V80.8M13.6 76.6H17.8M13.6 80.8H17.8M17.8 76.6V80.8M17.8 76.6H22M17.8 80.8H22M22 76.6V80.8M22 76.6H26.2M22 80.8H26.2M26.2 76.6V80.8M26.2 76.6H30.4V80.8M26.2 80.8H30.4M26.2 80.8V85M30.4 80.8V85M38.8 80.8H43M38.8 80.8V85M43 76.6V80.8M43 80.8H47.2M43 80.8V85M64 80.8H59.8M64 80.8H68.2M64 80.8V85M59.8 80.8H55.6V85M59.8 80.8V85M68.2 80.8H72.4M68.2 80.8V85M72.4 80.8V85M89.2 80.8H85M89.2 80.8H93.4M89.2 80.8V85M85 80.8V85M106 80.8H101.8M106 80.8V85M101.8 80.8V85M5.2 85H1M5.2 85V89.2M1 85V89.2M30.4 85H26.2M30.4 85V89.2M26.2 85V89.2M43 85H38.8M43 85H47.2V89.2M43 85V89.2M38.8 85H34.6V89.2M38.8 85V89.2M59.8 85H55.6M59.8 85H64M59.8 85V89.2M55.6 85V89.2M64 85H68.2M64 85V89.2M72.4 85H68.2M72.4 85V89.2M72.4 85H76.6M68.2 85V89.2M89.2 85H85M89.2 85V89.2M85 85H80.8M85 85V89.2M106 85H101.8M106 85V89.2M101.8 85H97.6M101.8 85V89.2M5.2 89.2H1M5.2 89.2V93.4M1 89.2V93.4M13.6 85H9.4V89.2M13.6 85V89.2M13.6 85H17.8M13.6 89.2H9.4M13.6 89.2H17.8M13.6 89.2V93.4M9.4 89.2V93.4M17.8 85V89.2M17.8 85H22V89.2M17.8 89.2H22M17.8 89.2V93.4M22 89.2V93.4M30.4 89.2H26.2M30.4 89.2V93.4M26.2 89.2V93.4M38.8 89.2H34.6M38.8 89.2V93.4M38.8 89.2H43M34.6 89.2V93.4H38.8M47.2 89.2H43M47.2 89.2V93.4M43 89.2V93.4M59.8 89.2H55.6M59.8 89.2H64M59.8 89.2V93.4M55.6 89.2H51.4V93.4H55.6M55.6 89.2V93.4M68.2 89.2H64M68.2 89.2H72.4M68.2 89.2V93.4M64 89.2V93.4M72.4 89.2H76.6M72.4 89.2V93.4H68.2M76.6 85V89.2M76.6 85H80.8M76.6 89.2H80.8M76.6 89.2V93.4M80.8 85V89.2M80.8 89.2H85M80.8 89.2V93.4M85 89.2H89.2M85 89.2V93.4M89.2 89.2V93.4M89.2 89.2H93.4M97.6 85H93.4V89.2M97.6 85V89.2M97.6 89.2H93.4M97.6 89.2H101.8M93.4 89.2V93.4H89.2M101.8 89.2H106M101.8 89.2V93.4M106 89.2V93.4M5.2 93.4H1M5.2 93.4V97.6M1 93.4V97.6M13.6 93.4H9.4M13.6 93.4H17.8M13.6 93.4V97.6M9.4 93.4V97.6H13.6M17.8 93.4H22M17.8 93.4V97.6M22 93.4V97.6H17.8M30.4 93.4H26.2M30.4 93.4V97.6M26.2 93.4V97.6M38.8 93.4H43M38.8 93.4V97.6H43M43 93.4H47.2M43 93.4V97.6M47.2 93.4V97.6M55.6 93.4H59.8M55.6 93.4V97.6H59.8M64 93.4H59.8M64 93.4H68.2M64 93.4V97.6M59.8 93.4V97.6M68.2 93.4V97.6M80.8 93.4H76.6M80.8 93.4H85M80.8 93.4V97.6M76.6 93.4V97.6H80.8M85 93.4H89.2M85 93.4V97.6M89.2 93.4V97.6M106 93.4H101.8M106 93.4V97.6M101.8 93.4H97.6V97.6M101.8 93.4V97.6M5.2 97.6H1M5.2 97.6V101.8M1 97.6V101.8M13.6 97.6H17.8M30.4 97.6H26.2M30.4 97.6V101.8M26.2 97.6V101.8M43 97.6H47.2M43 97.6V101.8H47.2M47.2 97.6V101.8M59.8 97.6H64M64 97.6H68.2M68.2 97.6H72.4V101.8M68.2 97.6V101.8H72.4M80.8 97.6H85M80.8 97.6V101.8H85M89.2 97.6H85M89.2 97.6V101.8M89.2 97.6H93.4V101.8M85 97.6V101.8M101.8 97.6H97.6M101.8 97.6H106M101.8 97.6V101.8M97.6 97.6V101.8H101.8M106 97.6V101.8M5.2 101.8H1M5.2 101.8V106M5.2 101.8H9.4M1 101.8V106H5.2M30.4 101.8H26.2M30.4 101.8V106H26.2M26.2 101.8H22M26.2 101.8V106M47.2 101.8H51.4V106H47.2V101.8ZM72.4 101.8H76.6V106H72.4V101.8ZM85 101.8H89.2M85 101.8V106H89.2M89.2 101.8H93.4M89.2 101.8V106M93.4 101.8V106H89.2M101.8 101.8H106M101.8 101.8V106H106V101.8M5.2 106H9.4M9.4 101.8V106M9.4 101.8H13.6M9.4 106H13.6M13.6 101.8V106M13.6 101.8H17.8M13.6 106H17.8M17.8 101.8V106M17.8 101.8H22M17.8 106H22M22 101.8V106M22 106H26.2M76.6 38.8H80.8V43H76.6V38.8ZM76.6 76.6H80.8V80.8H76.6V76.6ZM59.8 101.8H64V106H59.8V101.8Z" stroke="black" stroke-width="0.5"/>
</svg>
