<svg width="30" height="34" viewBox="0 0 30 34" fill="none" xmlns="http://www.w3.org/2000/svg">
<path d="M8.34323 0.594198C8.24314 0.617027 8.1515 0.667584 8.07881 0.740079C8.00612 0.812574 7.95532 0.904076 7.93223 1.00411L6.9091 4.75995H5.71217C5.56722 4.75995 5.4282 4.81753 5.32571 4.92003C5.22321 5.02252 5.16563 5.16154 5.16563 5.30649V13.6085L4.65406 11.4901C4.63944 11.4035 4.6042 11.3218 4.55131 11.2518C4.53966 11.2514 4.52799 11.2514 4.51633 11.2518C4.51668 11.2405 4.51668 11.2292 4.51633 11.2179C4.50541 11.2176 4.49447 11.2176 4.48354 11.2179C4.48392 11.2062 4.48392 11.1946 4.48354 11.1829C4.47189 11.1825 4.46022 11.1825 4.44856 11.1829C4.44891 11.1716 4.44891 11.1603 4.44856 11.149C4.43727 11.1487 4.42597 11.1487 4.41468 11.149C4.39382 11.1241 4.37077 11.101 4.34581 11.0802C4.33452 11.0798 4.32322 11.0798 4.31193 11.0802C4.24616 11.0562 4.1764 11.045 4.10643 11.0474C4.0482 11.0491 3.99064 11.0602 3.93591 11.0802H0.759399V12.1733H3.69761L6.7036 24.8465C6.71401 24.8586 6.72495 24.8703 6.73639 24.8815C6.74468 24.9164 6.7564 24.9505 6.77137 24.9831L7.69393 28.8439C7.25224 29.0766 6.88217 29.425 6.62337 29.8519C6.36457 30.2788 6.22681 30.7681 6.22483 31.2673C6.22483 32.7703 7.45455 34 8.95754 34C10.4605 34 11.6903 32.7703 11.6903 31.2673C11.6903 30.6606 11.4826 30.0824 11.1437 29.6276H16.6091C16.2703 30.0824 16.0626 30.6606 16.0626 31.2673C16.0626 32.7703 17.2923 34 18.7953 34C20.2983 34 21.528 32.7703 21.528 31.2673C21.528 29.7643 20.2983 28.5346 18.7953 28.5346C18.7133 28.5346 18.6368 28.528 18.5559 28.5346C18.4994 28.5256 18.4419 28.5256 18.3854 28.5346H8.75204L7.96721 25.2553H19.9911C20.1048 25.2538 20.2152 25.2168 20.3069 25.1496C20.3986 25.0824 20.467 24.9883 20.5027 24.8804L23.6803 14.3933C23.7081 14.309 23.715 14.2192 23.7003 14.1316C23.6856 14.0441 23.6498 13.9614 23.596 13.8908C23.5421 13.8202 23.4719 13.7637 23.3914 13.7264C23.3109 13.689 23.2224 13.6718 23.1338 13.6762H22.8944L23.031 13.4358C23.7142 13.4955 24.3954 13.3009 24.9439 12.8892C25.5079 12.4629 25.9036 11.8399 26.037 11.1818H27.0623C27.5247 11.1818 27.9652 11.3698 28.292 11.6945C28.6178 12.0191 28.8036 12.4323 28.8036 12.8903C28.8036 13.0353 28.8612 13.1743 28.9637 13.2768C29.0662 13.3793 29.2052 13.4369 29.3501 13.4369C29.4951 13.4369 29.6341 13.3793 29.7366 13.2768C29.8391 13.1743 29.8967 13.0353 29.8967 12.8903C29.8967 12.1405 29.6092 11.4376 29.0769 10.9086C28.5393 10.381 27.8155 10.0865 27.0623 10.0887H26.037C25.9987 9.8898 25.9157 9.6996 25.8315 9.50831C25.6762 9.13926 25.4433 8.80791 25.1487 8.53672C24.8541 8.26552 24.5047 8.06081 24.1241 7.93645L23.7481 5.00043C23.7375 4.88807 23.6925 4.78173 23.6191 4.696C23.5457 4.61028 23.4476 4.54937 23.3382 4.52165L17.4628 2.95089L8.6165 0.594198C8.52688 0.571058 8.43285 0.571058 8.34323 0.594198ZM8.85479 1.79003L17.1557 4.0079L19.9911 4.75995H8.03498L8.85479 1.79003ZM21.4952 5.16985L22.69 5.4781L22.9982 7.76593L21.4952 5.16985ZM6.25762 5.85413H20.6393L23.3393 10.5686V10.6025C23.3378 10.6254 23.3378 10.6484 23.3393 10.6714L22.4845 12.1733C22.2425 12.0677 22.0309 11.9031 21.8691 11.6945C22.1256 11.4008 22.2707 11.0263 22.279 10.6364C22.279 10.1117 22.0123 9.64823 21.6308 9.33888C21.6012 9.30021 21.5667 9.26566 21.528 9.23613C21.5083 9.22302 21.4799 9.21427 21.4592 9.20225C21.4374 9.1894 21.4147 9.17808 21.3914 9.16836C21.1403 9.03053 20.858 8.95975 20.5716 8.96286C20.135 8.97402 19.72 9.15529 19.4152 9.46802C19.1104 9.78075 18.9397 10.2002 18.9397 10.6369C18.9397 11.0736 19.1104 11.4931 19.4152 11.8058C19.72 12.1186 20.135 12.2998 20.5716 12.311C20.6984 12.311 20.8274 12.3033 20.9476 12.276C21.0952 12.4837 21.2537 12.6575 21.4592 12.8225C21.6056 12.9395 21.7762 13.0466 21.9379 13.1297L21.6308 13.6762H6.25762V5.85413ZM8.75095 7.45987C8.01202 7.45987 7.62507 7.88617 7.62507 8.6557C7.62507 10.0286 9.12697 10.2287 9.12697 11.2168C9.12697 11.56 8.95863 11.6956 8.71706 11.6956C8.47658 11.6956 8.34104 11.56 8.34104 11.2168V10.8758H7.62398V11.1829C7.62398 11.9525 8.00656 12.3788 8.75095 12.3788C9.49753 12.3788 9.87901 11.9525 9.87901 11.1829C9.87901 9.81 8.37602 9.60997 8.37602 8.62073C8.37602 8.2775 8.54435 8.14305 8.78593 8.14305C9.02641 8.14305 9.16195 8.2775 9.16195 8.62182V8.82623H9.87901V8.6557C9.87901 7.88617 9.49097 7.45987 8.75204 7.45987H8.75095ZM10.8693 7.52873L10.1173 12.311H10.8016L10.9371 11.4562H11.8597L11.9963 12.3099H12.7484L11.9963 7.52873H10.8704H10.8693ZM13.1244 7.52873V12.311H15.1051V11.6267H13.8764V7.52764H13.1244V7.52873ZM15.4461 7.52873V12.311H17.5306V11.6267H16.1981V10.2276H17.2573V9.54329H16.1981V8.21082H17.5306V7.52764H15.4461V7.52873ZM11.382 8.38134L11.758 10.808H11.0399L11.382 8.38134ZM24.2935 9.27002C24.5264 9.44601 24.7176 9.67118 24.8401 9.9532C25.1571 10.6856 24.933 11.5196 24.2935 12.0027C24.1094 12.1346 23.9004 12.2275 23.6792 12.276L24.4641 10.9096C24.512 10.8266 24.5373 10.7323 24.5373 10.6364C24.5373 10.5404 24.512 10.4462 24.4641 10.3631L24.3963 10.2604L24.2935 9.27002ZM20.4677 10.0559C20.389 10.4396 20.4229 10.8408 20.5027 11.2179C20.3591 11.2046 20.226 11.137 20.1306 11.029C20.0351 10.9209 19.9844 10.7805 19.989 10.6364C19.989 10.3412 20.1824 10.103 20.4677 10.0559ZM5.43781 14.7704H22.4156L21.9368 16.3073H11.347V17.4004H21.6297L21.1509 18.9373H13.0894V20.0304H20.8438L20.365 21.5333H14.8318V22.6264H20.0578L19.5801 24.1633H7.69393L5.43781 14.7704ZM8.95754 29.6276C9.86917 29.6276 10.5972 30.3545 10.5972 31.2673C10.5972 32.18 9.86917 32.9069 8.95754 32.9069C8.04591 32.9069 7.31791 32.18 7.31791 31.2673C7.31791 30.3545 8.04591 29.6276 8.95754 29.6276ZM18.7953 29.6276C19.7069 29.6276 20.4349 30.3545 20.4349 31.2673C20.4349 32.18 19.7069 32.9069 18.7953 32.9069C17.8837 32.9069 17.1557 32.18 17.1557 31.2673C17.1557 30.3545 17.8837 29.6276 18.7953 29.6276ZM8.95754 30.1403C8.33995 30.1403 7.86446 30.6158 7.86446 31.2334C7.86446 31.851 8.33995 32.3265 8.95754 32.3265C9.57513 32.3265 10.0506 31.851 10.0506 31.2334C10.0506 30.6158 9.57513 30.1403 8.95754 30.1403ZM18.7953 30.1403C18.1777 30.1403 17.7022 30.6158 17.7022 31.2334C17.7022 31.851 18.1777 32.3265 18.7953 32.3265C19.4129 32.3265 19.8884 31.851 19.8884 31.2334C19.8884 30.6158 19.4129 30.1403 18.7953 30.1403Z" fill="#0A24AD"/>
</svg>
