<svg width="43" height="35" viewBox="0 0 43 35" fill="none" xmlns="http://www.w3.org/2000/svg">
<path d="M23.0017 0.00181825C22.9011 0.00671545 22.8029 0.0342045 22.7147 0.0821842C20.8318 1.12435 19.5532 3.11018 19.3399 5.22692H9.42374C9.38257 5.22309 9.34113 5.22309 9.29997 5.22692C9.14952 5.25947 9.01473 5.34129 8.91763 5.45901C8.82053 5.57673 8.76685 5.72339 8.76538 5.87503V10.2096L7.65407 11.3036L0.45295 18.3914L0 18.8373L0.45295 19.2832L3.53933 22.3203L2.84016 23.4545C2.76927 23.6017 2.75517 23.7692 2.80047 23.9259C2.84577 24.0826 2.94738 24.2177 3.08638 24.3061L8.23079 27.2226L10.0821 28.2752V34.3519C10.0821 34.6915 10.3955 35 10.7405 35H41.0249C41.1974 34.9936 41.3611 34.9232 41.4832 34.8031C41.6053 34.6829 41.6768 34.5217 41.6833 34.3519V13.0043H42.3416C42.5142 12.9979 42.6779 12.9275 42.7999 12.8074C42.922 12.6872 42.9935 12.526 43 12.3562V5.87503C42.9935 5.70519 42.922 5.54404 42.7999 5.42386C42.6779 5.30368 42.5142 5.23333 42.3416 5.22692H32.4241C32.2161 3.11018 30.9744 1.12435 29.0928 0.0821842C28.9797 0.0202484 28.8506 -0.00769142 28.7215 0.00181825C28.6084 0.0130063 28.5 0.0522963 28.4065 0.116005C28.313 0.179713 28.2374 0.265753 28.1869 0.366058L25.9235 4.49844L23.6193 0.366058C23.5618 0.254102 23.4733 0.160465 23.364 0.0959991C23.2547 0.0315332 23.1291 -0.0011218 23.0017 0.00181825ZM22.8793 1.70247L24.8122 5.18673H24.4014C24.3486 5.10467 24.278 5.03516 24.1947 4.98323C23.461 4.56377 22.5886 4.44727 21.768 4.65917C21.4256 4.7499 21.1096 4.91582 20.8212 5.10507C21.0386 3.753 21.7753 2.53485 22.8793 1.70247ZM28.9269 1.70247C30.0516 2.55235 30.791 3.80412 30.985 5.18673H26.9927L28.9269 1.70247ZM10.0834 6.52315H12.5101L12.4285 6.60481C12.4281 6.61777 12.4281 6.63074 12.4285 6.6437L10.0834 8.9121V6.52315ZM13.3331 6.52315H19.5875L19.2583 7.09089C19.2306 7.08052 19.2056 7.05849 19.1767 7.04942C19.0055 6.99886 18.8211 6.94961 18.6421 6.92757C18.5315 6.91461 18.4222 6.92887 18.3129 6.92757C17.5411 6.92275 16.7944 7.19669 16.214 7.69753L13.3331 6.52315ZM21.1517 6.52315H23.2493V11.6679H20.9858C21.2525 11.2242 21.4078 10.7243 21.4388 10.2096C21.4622 10.035 21.4622 9.85802 21.4388 9.68335C21.4177 9.51873 21.3598 9.35152 21.315 9.19597C21.311 9.1843 21.3189 9.16745 21.315 9.15708C21.1576 8.66293 20.8743 8.21668 20.4921 7.86085C20.4631 7.83104 20.4394 7.80641 20.4091 7.77919L20.945 6.8472L20.9858 6.80702V6.76684C21.0372 6.67999 21.0872 6.59962 21.1504 6.52315H21.1517ZM24.5673 6.52315H27.2007V11.6679H24.5673V6.52315ZM28.5174 6.52315H41.6846V11.7081H41.1487C41.1093 11.6908 41.0683 11.6773 41.0262 11.6679H28.5174V6.52315ZM13.0026 7.85956L15.1436 8.6697H12.1809L13.0026 7.85956ZM18.3116 8.2238C18.2734 8.2238 18.2997 8.24065 18.4353 8.26528C18.4485 8.26567 18.4617 8.26567 18.4748 8.26528C19.1279 8.34046 19.6823 8.69692 19.9575 9.23745C19.9838 9.28541 19.9759 9.35022 19.9983 9.39948C20.0536 9.53817 20.1023 9.68854 20.1221 9.84538C20.1458 10.0372 20.1168 10.2252 20.0812 10.4118L19.257 9.03394C18.8909 8.67618 18.3274 8.54137 17.777 8.30546C17.9482 8.2562 18.1285 8.22121 18.3116 8.2238ZM12.2626 9.96593L18.3524 10.0061L19.2991 11.5875C19.1859 11.6653 19.095 11.7405 18.9699 11.7884C18.8499 11.8285 18.7259 11.8559 18.5999 11.8701C18.4375 11.4782 18.1476 11.1505 17.7757 10.9381C16.7315 10.3444 15.64 10.8214 15.1422 11.6679C14.6116 12.5739 14.9223 13.6965 15.8427 14.2202C16.2849 14.4723 16.8106 14.5413 17.3044 14.412C17.7982 14.2826 18.2197 13.9656 18.4762 13.5306C18.542 13.4178 18.5999 13.3258 18.6407 13.2065V13.1663C18.7277 13.1572 18.8014 13.1832 18.887 13.1663C19.0608 13.1326 19.253 13.0691 19.4216 13.0043C19.602 12.9356 19.7968 12.8993 19.9575 12.8021C19.9825 12.8306 20.0101 12.8578 20.0391 12.8824L21.3558 15.1508L18.1878 20.6196L13.4555 28.7211L11.0696 27.3847L8.88783 26.1286L4.32146 23.5362L9.05374 15.4347L12.2626 9.96593ZM10.6167 10.2096L7.94243 14.7866L4.19769 21.1459L1.85262 18.8373L8.55865 12.2343L9.71078 11.0599C9.73937 11.0485 9.76709 11.0351 9.79373 11.0198L10.6167 10.2096ZM16.2535 12.5182C16.4405 12.6686 16.6578 12.7775 16.8711 12.8824C16.9738 12.933 17.0936 12.9654 17.2003 13.0043C17.008 13.1585 16.6867 13.2311 16.5011 13.1261C16.3299 13.0289 16.2391 12.7476 16.2535 12.5182ZM21.6442 13.0043H23.2493V33.7038H11.3988V29.0451L13.3739 30.1793C13.5451 30.2778 13.7649 30.2934 13.9493 30.2195C14.0733 30.1577 14.1742 30.0587 14.2377 29.9369L19.3399 21.2677L22.7147 15.4749C22.7712 15.376 22.8009 15.2644 22.8009 15.1508C22.8009 15.0373 22.7712 14.9257 22.7147 14.8268L21.6442 13.0043ZM24.566 13.0043H27.1994V33.7038H24.566V13.0043ZM28.5161 13.0043H40.3666V33.7038H28.5161V13.0043ZM13.2909 14.8268C13.0684 14.8851 12.8893 15.0562 12.7155 15.3531L12.2218 16.2449L15.9244 18.3512L16.2535 17.7835L14.7314 16.893L14.8552 16.6908C15.0079 16.4289 15.2107 16.4134 15.5544 16.6091L16.1311 16.9332C16.4326 17.1056 16.5103 17.1133 16.6235 17.1367L16.9527 16.5689C16.7815 16.5482 16.6393 16.4691 16.4603 16.3667L15.9244 16.0427C15.5372 15.8223 15.187 15.7445 14.896 15.961C14.9237 15.6369 14.7433 15.3686 14.3614 15.1508L14.0731 14.9888C13.7873 14.8268 13.5148 14.7685 13.2909 14.8268ZM13.4555 15.5151C13.5464 15.5034 13.653 15.5216 13.7847 15.5967L14.1547 15.799C14.4523 15.9675 14.4865 16.1528 14.3614 16.3667L14.1968 16.6091L13.0855 15.961L13.2501 15.6771C13.3094 15.576 13.366 15.5268 13.4555 15.5151ZM12.015 16.5689L11.0696 18.149L14.8131 20.2554L15.719 18.6753L15.1844 18.3914L14.6076 19.4051L13.4963 18.757L13.9914 17.987L13.4555 17.6629L13.0026 18.4731L11.9334 17.8652L12.5509 16.893L12.015 16.5689ZM10.905 18.4329L10.04 19.9313L13.7439 22.0779L14.0731 21.47L12.5509 20.6196L13.0039 19.8497L12.468 19.5671L12.015 20.2956L10.905 19.6876L11.4396 18.7155L10.905 18.4329ZM9.87537 20.2152L8.97079 21.7538L12.6747 23.8602L13.0434 23.2925L11.4804 22.402L11.9334 21.6722L11.3988 21.3481L10.9867 22.1181L9.83455 21.47L10.4113 20.5393L9.87537 20.2152ZM8.84833 22.4421C8.60211 22.4992 8.39538 22.6871 8.22948 22.9697C7.9003 23.5336 8.04777 24.0495 8.64161 24.3865L10.5759 25.4805C11.1684 25.8175 11.6845 25.6801 12.015 25.1163C12.3468 24.5511 12.1572 24.0767 11.5634 23.7384L9.66996 22.6042C9.3737 22.4357 9.09456 22.3851 8.84833 22.4421ZM8.97079 23.0902C9.05901 23.0721 9.16829 23.0954 9.29997 23.1719L11.275 24.3061C11.5397 24.4565 11.5884 24.6496 11.4804 24.8324C11.3738 25.0151 11.2105 25.0644 10.9459 24.914L8.92997 23.7798C8.66399 23.6282 8.61659 23.435 8.72324 23.2523C8.77723 23.1615 8.88125 23.1097 8.97079 23.0902Z" fill="#0A24AD"/>
</svg>
